<svg width="685.8" height="151.6" viewBox="-10 -40 685.8 151.6" xmlns="http://www.w3.org/2000/svg"><g id="svgGroup" stroke-linecap="round" fill-rule="evenodd" font-size="9pt" stroke="#000000" stroke-width="0.8" fill="none" style="stroke:#000000;stroke-width:0.8;fill:none"><path d="M 56.8 14.8 L 56.8 14.4 L 56.8 12 L 56 12 L 56 11.6 L 56.6 11.6 L 56.8 11.8 L 56.8 12 L 57 12 L 57.2 12.2 L 57.2 14.4 L 56.8 14.4 L 56.8 14.8 L 59.6 14.8 L 59.6 15.6 L 60 15.6 L 60 15 L 60.6 15.6 L 60.8 15.6 L 60.8 36.4 L 56.8 36.4 L 56.8 36.8 L 56.4 36.4 L 53.6 36.4 L 53.6 37.2 L 56.8 37.2 L 56.8 36.8 L 58.4 38.4 L 59.6 38.4 L 59.6 39.6 L 58.4 38.4 L 48.8 38.4 L 48.8 40.8 L 59.6 40.8 L 59.6 39.6 L 60.8 40.8 L 60.8 42 L 42.8 42 L 42.8 43.2 L 42.4 43.2 L 42.4 40.8 L 40.8 40.8 L 40.8 42.8 L 41.6 42.8 L 41.6 43.2 L 59.6 43.2 L 59.6 43.6 L 60 43.6 L 60 44.4 L 60.8 44.4 L 60.8 42 L 61.6 42 L 61.6 46.6 L 63 48 L 61.6 48 L 61.6 48.4 L 42.4 48.4 L 42.4 48 L 61.6 48 L 61.6 46.6 L 60.8 45.8 L 60.8 46 L 60 46 L 60 46.8 L 42.4 46.8 L 42.4 48 L 37.6 48 L 38 48 L 38 45.6 L 34.4 45.6 L 34.4 46 L 35.2 46 L 35.2 46.8 L 37.6 46.8 L 37.6 48 L 37.6 49.2 L 64.2 49.2 L 63 48 L 64.4 48 L 64.4 49.2 L 65.6 49.2 L 65.6 50.6 L 65.8 50.8 L 65.8 52.8 L 33.8 52.8 L 33.2 53.4 L 33.2 52.8 L 33.8 52.8 L 35.8 50.8 L 35.2 50.8 L 35.2 50.2 L 35 50 L 34.4 50 L 34.4 49.4 L 35 50 L 35.2 50 L 35.2 49.2 L 34.4 49.2 L 34.4 49.4 L 34.2 49.2 L 33.6 49.2 L 33.6 48.6 L 32.6 47.6 L 32 47.6 L 32 47 L 31.8 46.8 L 31.2 46.8 L 31.2 46.2 L 31.8 46.8 L 32 46.8 L 32 46 L 31.2 46 L 31.2 46.2 L 31 46 L 25.8 46 L 25.8 48 L 26 48 L 26 50.4 L 25.8 50.4 L 25.8 52.8 L 18.4 52.8 L 18.8 52.8 L 18.8 50.4 L 18.8 48 L 18.8 45.6 L 18.8 43.2 L 18.8 40.8 L 18.8 38.4 L 18.8 36 L 18.8 33.6 L 18.8 31.2 L 18.8 28.8 L 18.8 26.4 L 18.8 24 L 18.8 21.6 L 18.8 19.2 L 18.8 16.8 L 18.8 14.4 L 18.8 12 L 18.8 9.6 L 18.8 7.2 L 18.8 4.8 L 18.8 2.4 L 18.4 2.4 L 18.4 4.8 L 18.8 4.8 L 18.8 7.2 L 18.4 7.2 L 18.4 9.6 L 18.8 9.6 L 18.8 12 L 18.4 12 L 18.4 14.4 L 18.8 14.4 L 18.8 16.8 L 18.4 16.8 L 18.4 19.2 L 18.8 19.2 L 18.8 21.6 L 18.4 21.6 L 18.4 24 L 18.8 24 L 18.8 26.4 L 18.4 26.4 L 18.4 28.8 L 18.8 28.8 L 18.8 31.2 L 18.4 31.2 L 18.4 33.6 L 18.8 33.6 L 18.8 36 L 18.4 36 L 18.4 38.4 L 18.8 38.4 L 18.8 40.8 L 18.4 40.8 L 18.4 43.2 L 18.8 43.2 L 18.8 45.6 L 18.4 45.6 L 18.4 48 L 18.8 48 L 18.8 50.4 L 18.4 50.4 L 18.4 52.8 L 18.4 53.2 L 24.8 53.2 L 24.8 54 L 25.6 54 L 25.6 55.2 L 25.8 55.2 L 25.8 52.8 L 26 52.8 L 26 55.2 L 25.8 55.2 L 25.8 55.8 L 30.8 55.8 L 32 54.6 L 32 54 L 32.6 54 L 33.2 53.4 L 33.2 54 L 34.4 54 L 34.4 53.2 L 65.8 53.2 L 65.8 52.8 L 66.8 52.8 L 66.8 55.2 L 66.4 55.2 L 66.4 56.4 L 65.6 56.4 L 65.6 57.2 L 64.4 57.2 L 62.4 59.2 L 62.4 60.4 L 61.2 60.4 L 60.8 60.8 L 60.8 66.8 L 59.8 66.8 L 57.2 69.4 L 57.2 67.2 L 55.2 67.2 L 4 67.2 L 4 67.6 L 55.2 67.6 L 55.2 67.2 L 55.2 66 L 59.2 66 L 59.2 65.2 L 55.2 65.2 L 55.2 66 L 5.6 66 L 5.6 61.2 L 4.4 61.2 L 4.4 62.4 L 4 62.4 L 4 64.8 L 4.4 64.8 L 4.4 62.4 L 4.4 61.2 L 5.6 61.2 L 5.6 54.8 L 5.6 48.4 L 5.6 42 L 5.6 35.6 L 5.6 29.2 L 5.6 22.8 L 5.6 16.4 L 5.6 10 L 5.6 3.6 L 4.4 3.6 L 4.4 4.8 L 4 4.8 L 4 3.6 L 4.4 3.6 L 5.6 3.6 M 4.4 3.6 L 4.4 0.8 L 6.8 0.8 L 6.8 1.2 L 8 1.2 L 8 2 L 8.8 2 L 8.8 2.4 L 9.2 2.4 L 8.8 2.4 L 8.8 3.6 L 9.2 3.6 L 9.2 10 L 10.4 10 L 10.4 3.6 L 9.2 3.6 L 9.2 2.4 L 9.2 0.8 L 11.6 0.8 L 11.6 60 L 59.2 60 L 59.2 58.8 L 62 58.8 L 62 57.6 L 14 57.6 L 14 0.8 L 16.4 0.8 L 16.4 1.2 L 17.6 1.2 L 17.6 2 L 18.4 2 L 18.4 2.4 L 18.8 2.4 L 18.8 0.8 L 21.2 0.8 L 21.2 1.2 L 22.4 1.2 L 22.4 2.4 L 23.6 2.4 L 23.6 0.8 L 26 0.8 L 26 1.2 L 27.2 1.2 L 27.2 2 L 28 2 L 28 2.4 L 28.4 2.4 L 28.4 0.8 L 26 0.8 L 26 0 L 28.4 0 L 28.4 0.8 L 30.8 0.8 L 30.8 12.4 L 32 12.4 L 32 14.4 L 33.2 14.4 M 2 0.8 L 2 68.4 L 3.2 68.4 L 3.2 69.6 L 57 69.6 L 57.2 69.4 L 57.2 69.6 L 57 69.6 L 56 70.6 L 56 71.6 L 1.6 71.6 L 1.6 70.8 L 0.8 70.8 L 0.8 70 L 0 70 L 0 1.2 L 0.8 1.2 L 0.8 0.8 L 2 0.8 Z M 15.2 56.4 L 15.2 2 L 16 2 L 16 55.6 L 24.8 55.6 L 24.8 56.4 L 15.2 56.4 Z M 44.8 12.4 L 44.8 12 L 45.2 12 L 45.2 9.6 L 37.6 9.6 L 38 9.6 L 38 7.2 L 38 4.8 L 38 3 L 37.6 2.6 L 37.6 4.8 L 38 4.8 L 38 7.2 L 37.6 7.2 L 37.6 9.6 L 37.6 10.8 L 44.8 10.8 L 44.8 12 L 44.8 12.4 L 42.8 12.4 L 42.8 14.4 L 45.2 14.4 L 45.2 16.4 L 40.8 16.4 L 40.8 14.8 L 40.4 14.8 L 40.4 14.4 L 32 14.4 L 33.2 14.4 L 33.2 0.8 L 35.8 0.8 L 36.2 1.2 L 36.8 1.2 L 36.8 1.8 L 37 2 L 37.6 2 L 37.6 2.4 L 38 2.4 L 38 3 L 40.4 5.4 L 40.4 6 L 40.8 6 L 40.8 5.8 L 40.4 5.4 L 40.4 4.8 L 50 4.8 L 50 5.2 L 50.4 5.2 L 50.4 5.8 L 50.4 7.2 L 52.2 7.2 L 52.4 7.4 L 52.4 9.6 L 51.2 9.6 L 51.2 9.2 L 50.4 9.2 L 50.4 7.2 L 50 7.2 L 50 5.8 L 50.4 5.8 L 50.4 5.2 M 9.2 61.2 L 55.2 61.2 L 55.2 62.4 L 59.6 62.4 L 59.6 62.8 L 60 62.8 L 60 63.6 L 59.6 63.6 L 59.6 62.8 L 55.2 62.8 L 55.2 62.4 L 9.2 62.4 L 9.2 61.2 Z M 50 31.2 L 49.6 31.2 L 52.4 31.2 L 52.4 33.6 L 59.6 33.6 L 59.6 34.8 L 56.8 34.8 L 56.8 34 L 53.6 34 L 53.6 34.8 L 52.8 34.8 L 52.8 36 L 50 36 L 50 33.6 L 47.6 33.6 L 47.6 31.6 L 49.6 31.6 L 49.6 31.2 L 50 31.2 L 50 29.2 L 42.4 29.2 L 42.4 28.8 L 41.6 28.8 L 41.6 26.4 L 42.4 26.4 L 42.4 28.8 L 42.8 28.8 L 42.8 26.4 L 41.6 26.4 L 41.6 28.8 L 50 28.8 L 50 29.2 L 50.4 29.2 L 50.4 27.6 L 44 27.6 L 44 22.8 L 44 18 L 45.2 18 L 45.2 16.4 L 40.8 16.4 L 40.4 16.4 L 40.4 14.8 L 32 14.8 L 32 14.4 M 31.6 21.6 L 33.2 23.2 L 33.2 24 L 34 24 L 34.4 24.4 L 34.4 26.8 L 33.6 26.8 L 33.6 28 L 31.6 30 L 30.4 30 L 30.4 30.8 L 27.2 30.8 L 28 30.8 L 28 31.2 L 28.4 31.2 L 28.4 33.6 L 28 33.6 L 28 31.2 L 27.2 31.2 L 27.2 30.8 L 27.2 30 L 25.8 30 L 25.8 21.2 L 24.8 21.2 L 24.8 16.4 L 23.6 16.4 L 23.6 14.4 L 22.4 14.4 L 22.4 12 L 22.4 9.6 L 23.2 9.6 L 23.2 12 L 23.6 12 L 23.6 10 L 24.8 10 L 24.8 16.4 L 25.6 16.4 L 25.6 20.4 L 26 20.4 L 26 20.8 L 25.8 20.8 L 25.8 21.2 L 26 21.2 L 26 21.6 L 31.6 21.6 Z M 64 56.4 L 34.4 56.4 L 34.4 55.6 L 64 55.6 L 64 56.4 Z M 23.2 16.4 L 23.2 14.4 L 23.2 12 L 22.4 12 L 23.6 12 L 23.6 14.4 L 23.2 14.4 L 23.2 16.4 L 23.6 16.4 L 23.6 16.8 L 22.4 16.8 L 22.4 19.2 L 23.6 19.2 L 23.6 21.6 L 22.4 21.6 L 22.4 24 L 23.6 24 L 23.6 26.4 L 22.4 26.4 L 22.4 28.8 L 23.6 28.8 L 23.6 31.2 L 22.4 31.2 L 22.4 33.6 L 23.6 33.6 L 23.6 31.2 L 22.4 31.2 L 22.4 33.6 M 51.2 12 L 52.4 12 L 52.4 19.2 L 59.6 19.2 L 59.6 22 L 59.2 22 L 59.2 24 L 57.2 24 L 57.2 21.6 L 50 21.6 L 50 12.4 L 51.2 12.4 L 51.2 12 Z M 37.6 33.6 L 45.2 33.6 L 45.2 35.6 L 48.8 35.6 L 48.8 38.4 L 47.6 38.4 L 47.6 36 L 45.2 36 L 45.2 35.6 L 44 35.6 L 44 34 L 37.6 34 L 37.6 33.6 Z M 47.6 22.8 L 55.2 22.8 L 55.2 26.4 L 57.2 26.4 L 57.2 28.8 L 56.8 28.8 L 56.8 27.6 L 55.2 27.6 L 55.2 26.4 L 54.8 26.4 L 54.8 24 L 47.6 24 L 47.6 22.8 Z M 35.2 36.4 L 41.6 36.4 L 41.6 37.2 L 34.4 37.2 L 34.4 30 L 35.2 30 L 35.2 36.4 Z M 53.6 18 L 53.6 11.6 L 54.4 11.6 L 54.4 17.2 L 60 17.2 L 60 18 L 53.6 18 Z M 45.2 16.4 L 47.6 16.4 L 47.6 22.8 L 48.8 22.8 L 48.8 16.4 L 47.6 16.4 L 47.6 12 L 44.8 12 M 40.8 16.4 L 40.8 16.8 L 42.8 16.8 L 42.8 22.8 L 44 22.8 L 42.8 22.8 L 42.8 24 L 42.8 26.4 L 42.4 26.4 L 42.4 24 L 42.8 24 L 41.6 24 L 41.6 22.8 L 42.4 22.8 L 42.4 24 L 42.4 26.4 M 24.8 3.6 L 24.8 10 L 23.6 10 L 23.6 9.6 L 23.6 7.2 L 23.6 4.8 L 23.6 3.6 L 23.2 3.6 L 23.2 4.8 L 23.6 4.8 L 22.4 4.8 L 22.4 2.4 L 23.6 2.4 L 23.6 3.6 L 24.8 3.6 Z M 24.8 35.6 L 24.8 42 L 23.6 42 L 23.6 40.8 L 23.6 38.4 L 23.6 36 L 23.6 35.6 L 23.2 35.6 L 23.2 36 L 23.6 36 L 22.4 36 L 22.4 33.6 L 23.6 33.6 L 23.6 35.6 L 24.8 35.6 Z M 28 43.2 L 35.6 43.2 L 35.6 45.6 L 34.4 45.6 L 34.4 43.6 L 31.2 43.6 L 31.2 44.4 L 27.2 44.4 L 27.2 43.6 L 28 43.6 L 28 43.2 Z M 48.8 40.8 L 48.8 42 L 42.8 42 L 42.8 40.8 L 42.4 40.8 L 42.4 38 L 42.8 38 L 42.8 38.4 L 43.2 38.4 L 43.2 39.6 L 44 39.6 L 44 40.4 L 44.8 40.4 L 44.8 41.2 L 46.4 41.2 L 46.4 40.8 L 48.8 40.8 Z M 28 19.2 L 35.6 19.2 L 35.6 21.2 L 35.2 21.2 L 35.2 20.4 L 32 20.4 L 32 21.6 L 31.6 21.6 L 30.8 20.8 L 28 20.8 L 28 19.2 Z M 34.4 2 L 35.2 2 L 35.2 11.6 L 34.4 11.6 L 34.4 2 Z M 36 21.2 L 36 18 L 36.8 18 L 36.8 18.8 L 38 18.8 L 38 19.2 L 40 19.2 L 40 22.8 L 38 22.8 L 38 24 L 37.6 24 L 37.6 22.8 L 38 22.8 L 38 21.6 L 37.6 21.6 L 37.6 21.2 L 36 21.2 Z M 40.4 40.4 L 38.4 40.4 L 38.4 39.6 L 32 39.6 L 32 38.4 L 40.4 38.4 L 40.4 40.4 Z M 28 33.6 L 28.4 33.6 L 28.4 35.6 L 29.6 35.6 L 29.6 42 L 28.4 42 L 28.4 35.6 L 28 35.6 L 28 33.6 Z M 32 38.4 L 32 38 L 30.8 38 L 30.8 31.6 L 32 31.6 L 32 31.2 L 33.2 31.2 L 33.2 38.4 L 32 38.4 Z M 23.2 14.4 L 22.4 14.4 L 22.4 16.8 L 23.6 16.8 L 23.6 19.2 L 23.6 21.6 L 23.6 24 L 23.6 26.4 L 23.6 28.8 L 23.6 31.2 M 28.4 10 L 28.4 3.6 L 28 3.6 L 28 2.4 L 28.4 2.4 L 28.4 3.6 L 29.6 3.6 L 29.6 10 L 28.4 10 Z M 50.4 5.8 L 50.8 5.8 L 52.2 7.2 L 52.4 7.2 L 52.4 7.4 L 55.8 10.8 L 56 10.8 L 56 11 L 56.6 11.6 L 56.8 11.6 L 56.8 11.8 L 57 12 L 57.2 12 L 57.2 12.2 L 59.4 14.4 L 59.6 14.6 L 59.6 14.8 L 59.8 14.8 L 60 15 L 60 14.8 L 59.8 14.8 L 59.6 14.6 L 59.6 14.4 L 59.4 14.4 L 57.2 12.2 M 9.2 16.4 L 10.4 16.4 L 10.4 22.8 L 9.2 22.8 L 9.2 16.4 Z M 29.6 10 L 29.6 16.4 L 28.4 16.4 L 28.4 10 L 29.6 10 Z M 9.2 35.6 L 10.4 35.6 L 10.4 42 L 9.2 42 L 9.2 35.6 Z M 9.2 48.4 L 10.4 48.4 L 10.4 54.8 L 9.2 54.8 L 9.2 48.4 Z M 9.2 10 L 10.4 10 L 10.4 16.4 L 9.2 16.4 L 9.2 10 Z M 9.2 22.8 L 10.4 22.8 L 10.4 29.2 L 9.2 29.2 L 9.2 22.8 Z M 9.2 29.2 L 10.4 29.2 L 10.4 35.6 L 9.2 35.6 L 9.2 29.2 Z M 9.2 42 L 10.4 42 L 10.4 48.4 L 9.2 48.4 L 9.2 42 Z M 9.2 54.8 L 10.4 54.8 L 10.4 61.2 L 9.2 61.2 L 9.2 54.8 Z M 23.2 36 L 23.2 38.4 L 23.2 40.8 L 23.6 40.8 L 22.4 40.8 L 22.4 38.4 L 23.2 38.4 L 23.6 38.4 L 22.4 38.4 L 22.4 36 L 23.2 36 Z M 22.4 48 L 22.4 45.6 L 23.6 45.6 L 23.6 43.2 L 22.4 43.2 L 22.4 45.6 L 23.6 45.6 L 23.6 48 L 22.4 48 Z M 23.2 4.8 L 23.2 7.2 L 23.2 9.6 L 23.6 9.6 L 22.4 9.6 L 22.4 7.2 L 23.2 7.2 L 23.6 7.2 L 22.4 7.2 L 22.4 4.8 L 23.2 4.8 Z M 4 14.4 L 4 16.8 L 4.4 16.8 L 4.4 19.2 L 4 19.2 L 4 16.8 L 4.4 16.8 L 4.4 16.4 L 5.6 16.4 L 4.4 16.4 L 4.4 14.4 L 4 14.4 Z M 4 33.6 L 4 36 L 4.4 36 L 4.4 38.4 L 4 38.4 L 4 36 L 4.4 36 L 4.4 35.6 L 5.6 35.6 L 4.4 35.6 L 4.4 33.6 L 4 33.6 Z M 4.4 48 L 4 48 L 4 50.4 L 4.4 50.4 L 4.4 52.8 L 4 52.8 L 4 50.4 L 4.4 50.4 L 4.4 48.4 L 5.6 48.4 L 4.4 48.4 L 4.4 48 Z M 4 52.8 L 4 55.2 L 4.4 55.2 L 4.4 57.6 L 4 57.6 L 4 55.2 L 4.4 55.2 L 4.4 54.8 L 5.6 54.8 L 4.4 54.8 L 4.4 52.8 L 4 52.8 Z M 4.4 9.6 L 4 9.6 L 4 12 L 4.4 12 L 4.4 14.4 L 4 14.4 L 4 12 L 4.4 12 L 4.4 10 L 5.6 10 L 4.4 10 L 4.4 9.6 Z M 4.4 21.6 L 4 21.6 L 4 24 L 4.4 24 L 4.4 26.4 L 4 26.4 L 4 24 L 4.4 24 L 4.4 22.8 L 5.6 22.8 L 4.4 22.8 L 4.4 21.6 Z M 4.4 28.8 L 4 28.8 L 4 31.2 L 4.4 31.2 L 4.4 33.6 L 4 33.6 L 4 31.2 L 4.4 31.2 L 4.4 29.2 L 5.6 29.2 L 4.4 29.2 L 4.4 28.8 Z M 4.4 40.8 L 4 40.8 L 4 43.2 L 4.4 43.2 L 4.4 45.6 L 4 45.6 L 4 43.2 L 4.4 43.2 L 4.4 42 L 5.6 42 L 4.4 42 L 4.4 40.8 Z M 46.4 8.4 L 40.8 8.4 L 40.8 7.6 L 46.4 7.6 L 46.4 8.4 Z M 25.8 48 L 25.8 50.4 L 25.6 50.4 L 25.6 49.2 L 22.4 49.2 L 22.4 48 L 25.8 48 Z M 50.4 29.2 L 51.2 29.2 L 51.2 30 L 54.4 30 L 54.4 30.8 L 50.4 30.8 L 50.4 29.2 Z M 25.6 30.8 L 25.6 35.6 L 24.8 35.6 L 24.8 30.8 L 25.6 30.8 Z M 36 18 L 31.2 18 L 31.2 17.2 L 36 17.2 L 36 18 Z M 41.6 28.8 L 41.6 30 L 49.6 30 L 49.6 31.2 M 37.6 27.6 L 35.2 27.6 L 35.2 26.8 L 34.8 26.8 L 35.6 26 L 35.6 27.6 L 37.6 27.6 Z M 35.2 24.4 L 34.4 24.4 L 34.4 24 L 34 24 L 33.2 23.2 L 33.2 22 L 33.6 22 L 33.6 23.6 L 34.4 23.6 L 34.4 24 L 35.2 24 L 35.2 24.4 Z M 56.8 28.8 L 59.6 28.8 L 59.6 30 L 56.8 30 L 56.8 28.8 Z M 23.2 40.8 L 23.2 42 L 23.6 42 L 23.6 43.2 L 22.4 43.2 L 22.4 40.8 L 23.2 40.8 Z M 51.2 9.6 L 52.4 9.6 L 52.4 12 L 51.2 12 L 51.2 9.6 Z M 30.8 0.8 L 30.8 0 L 33.2 0 L 33.2 0.8 L 30.8 0.8 Z M 6.8 0.8 L 6.8 0 L 9.2 0 L 9.2 0.8 L 6.8 0.8 Z M 11.6 0.8 L 11.6 0 L 14 0 L 14 0.8 L 11.6 0.8 Z M 21.2 0.8 L 21.2 0 L 23.6 0 L 23.6 0.8 L 21.2 0.8 Z M 4.4 0.8 L 2 0.8 L 2 0 L 4.4 0 L 4.4 0.8 Z M 47.2 10.8 L 49.6 10.8 L 49.6 11.6 L 47.2 11.6 L 47.2 10.8 Z M 16.4 0.8 L 16.4 0 L 18.8 0 L 18.8 0.8 L 16.4 0.8 Z M 4 26.4 L 4.4 26.4 L 4.4 28.8 L 4 28.8 L 4 26.4 Z M 37.6 26.4 L 38 26.4 L 38 28.8 L 37.6 28.8 L 37.6 27.6 L 37.6 26.4 Z M 4 45.6 L 4.4 45.6 L 4.4 48 L 4 48 L 4 45.6 Z M 4 57.6 L 4.4 57.6 L 4.4 60 L 4 60 L 4 57.6 Z M 4 67.2 L 4 64.8 L 4.4 64.8 L 4.4 67.2 L 4 67.2 Z M 4.4 4.8 L 4.4 7.2 L 4 7.2 L 4 4.8 L 4.4 4.8 Z M 4.4 7.2 L 4.4 9.6 L 4 9.6 L 4 7.2 L 4.4 7.2 Z M 4 19.2 L 4.4 19.2 L 4.4 21.6 L 4 21.6 L 4 19.2 Z M 4 38.4 L 4.4 38.4 L 4.4 40.8 L 4 40.8 L 4 38.4 Z M 28 16.8 L 28.4 16.8 L 28.4 19.2 L 28 19.2 L 28 16.8 Z M 37.6 24 L 38 24 L 38 26.4 L 37.6 26.4 L 37.6 24 Z M 37.6 28.8 L 38 28.8 L 38 31.2 L 37.6 31.2 L 37.6 28.8 Z M 37.6 31.2 L 38 31.2 L 38 33.6 L 37.6 33.6 L 37.6 31.2 Z M 24.8 42 L 25.6 42 L 25.6 43.6 L 24.8 43.6 L 24.8 42 Z M 42.4 46.8 L 40.8 46.8 L 40.8 46 L 42.4 46 L 42.4 46.8 Z M 23.6 19.2 L 22.4 19.2 L 22.4 21.6 L 23.6 21.6 M 23.6 24 L 22.4 24 L 22.4 26.4 L 23.6 26.4 M 25.6 2 L 25.6 3.6 L 24.8 3.6 L 24.8 2 L 25.6 2 Z M 6.4 2 L 6.4 3.6 L 5.6 3.6 L 5.6 2 L 6.4 2 Z M 4.4 62.4 L 4 62.4 L 4 60 L 4.4 60 L 4.4 61.2 M 34.4 24.4 L 35.6 25.6 L 35.6 25.2 L 35.2 25.2 L 35.2 24.4 L 34.4 24.4 Z M 23.6 28.8 L 22.4 28.8 L 22.4 31.2 M 18.8 14.4 L 18.4 14.4 L 18.4 16.8 L 18.8 16.8 M 18.8 4.8 L 18.4 4.8 L 18.4 7.2 L 18.8 7.2 M 38 4.8 L 37.6 4.8 L 37.6 7.2 L 38 7.2 M 18.8 9.6 L 18.4 9.6 L 18.4 12 L 18.8 12 M 18.8 19.2 L 18.4 19.2 L 18.4 21.6 L 18.8 21.6 M 18.8 24 L 18.4 24 L 18.4 26.4 L 18.8 26.4 M 18.8 28.8 L 18.4 28.8 L 18.4 31.2 L 18.8 31.2 M 42.4 24 L 41.6 24 L 41.6 26.4 M 18.8 33.6 L 18.4 33.6 L 18.4 36 L 18.8 36 M 28.4 42 L 28.4 43.2 L 28 43.2 L 28 42 L 28.4 42 Z M 18.8 38.4 L 18.4 38.4 L 18.4 40.8 L 18.8 40.8 M 18.8 43.2 L 18.4 43.2 L 18.4 45.6 L 18.8 45.6 M 18.8 48 L 18.4 48 L 18.4 50.4 L 18.8 50.4 M 35.6 27.6 L 35.6 28.4 L 35.2 28.4 L 35.2 27.6 L 35.6 27.6 Z M 41.6 43.2 L 42.4 43.2 L 42.4 43.6 L 41.6 43.6 L 41.6 43.2 Z M 65.6 56 L 65.6 55.2 L 65.8 55.2 L 65.8 55.8 L 65.6 56 Z M 36.8 2.4 L 36.8 2 L 37 2 L 37.4 2.4 L 36.8 2.4 Z M 28.4 16.4 L 28.4 16.8 L 28 16.8 L 28 16.4 L 28.4 16.4 Z M 40.8 40.8 L 40.4 40.8 L 40.4 40.4 L 40.8 40.4 L 40.8 40.8 Z M 33.2 47.6 L 33.6 47.6 L 33.6 48 L 33.2 48 L 33.2 47.6 Z M 35.6 21.2 L 36 21.2 L 36 21.6 L 35.6 21.6 L 35.6 21.2 Z" id="0" vector-effect="non-scaling-stroke"/><path d="M 129.2 70.8 L 74.2 70.8 L 74.2 0.8 L 94.2 0.8 L 99.2 5.8 L 99.2 50.8 L 124.2 50.8 L 126.6 53.2 L 127 53.2 L 127 53.6 L 129.2 55.8 L 129.2 59.6 L 130.2 59.6 L 130.2 62.8 L 129.2 62.8 L 129.2 59.6 L 85.4 59.6 L 85.4 2 L 82.2 2 L 82.2 62.8 L 129.2 62.8 L 129.2 66 L 130.2 66 L 130.2 69.2 L 129.2 69.2 L 129.2 66 L 79 66 L 79 2 L 75.8 2 L 75.8 69.2 L 129.2 69.2 L 129.2 70.8 Z M 126.6 53.2 L 127 53.6 L 127 56.4 L 88.6 56.4 L 88.6 2 L 91.8 2 L 91.8 53.2 L 126.6 53.2 Z M 95 50 L 95 5.2 L 98.2 5.2 L 98.2 50 L 95 50 Z" id="1" vector-effect="non-scaling-stroke"/><path d="M 147.9 18 L 147.9 18.8 L 149.5 18.8 L 149.5 26.8 L 150.3 26.8 L 150.3 27.6 L 147.9 27.6 L 147.9 28.4 L 149.5 28.4 L 149.5 34 L 150.3 34 L 150.3 30.8 L 151.1 30.8 L 151.1 44.4 L 152.7 44.4 L 152.7 46 L 155.9 46 L 155.9 44.4 L 154.3 44.4 L 154.3 42.8 L 152.7 42.8 L 152.7 30.8 L 153.5 30.8 L 153.5 40.4 L 154.3 40.4 L 154.3 41.2 L 155.9 41.2 L 155.9 40.4 L 156.3 40.4 L 156.3 45.8 L 165.5 45.8 L 165.5 46 L 169.5 46 L 169.5 44.4 L 166.3 44.4 L 166.3 45.8 L 165.5 45.8 L 165.5 35 L 165.3 34.8 L 163.9 34.8 L 163.9 34 L 163.1 34 L 163.1 33.2 L 162.3 33.2 L 162.3 31.8 L 163.1 32.6 L 163.1 31.6 L 165.5 31.6 L 165.5 33.2 L 166.3 33.2 L 166.3 30.8 L 163.9 30.8 L 163.9 31.6 L 163.1 31.6 L 163.1 30.8 L 163.9 30.8 L 163.9 30 L 163.1 30 L 163.1 27.6 L 160.7 27.6 L 160.7 24.4 L 160.7 21.2 L 157.5 21.2 L 157.5 20.4 L 156.7 20.4 L 156.7 18.8 L 159.1 18.8 L 159.1 21.2 L 159.9 21.2 L 159.9 18 L 160.7 18 L 160.7 21.2 L 162.3 21.2 L 162.3 18 L 163.9 18 L 163.9 28.4 L 165.5 28.4 L 165.5 30 L 167.1 30 L 167.1 31.6 L 168.7 31.6 L 168.7 42.8 L 169.5 42.8 L 169.5 44.4 L 191.1 44.4 L 191.1 46 L 169.5 46 L 169.5 46.8 L 166.3 46.8 L 166.3 47.6 L 188.7 47.6 L 188.7 46.8 L 191.3 46.8 L 191.3 43.6 L 191.9 43.6 L 191.9 46.8 L 191.3 46.8 L 191.3 50 L 191.9 50 L 191.9 50.8 L 192.7 50.8 L 192.7 52.2 L 191.9 51.4 L 191.9 52.4 L 192.7 52.4 L 192.7 52.2 L 192.9 52.4 L 194.3 52.4 L 194.3 53.2 L 195.1 53.2 L 195.1 54 L 195.9 54 L 195.9 55.4 L 195.1 54.6 L 195.1 55.6 L 195.9 55.6 L 195.9 55.4 L 196.3 55.8 L 196.3 65.8 L 197.3 66.8 L 197.5 66.8 L 197.5 67 L 197.3 66.8 L 195.1 66.8 L 195.1 66 L 181.5 66 L 181.5 65.2 L 179.1 65.2 L 179.1 64.4 L 179.9 64.4 L 179.9 65.2 L 179.1 65.2 L 179.1 66 L 178.3 66 L 178.3 66.8 L 179.1 66.8 L 179.1 66 L 181.5 66 L 181.5 66.8 L 195.1 66.8 L 195.1 68.4 L 179.9 68.4 L 179.9 66.8 L 179.1 66.8 L 179.1 69.2 L 195.1 69.2 L 195.1 68.4 L 197.5 68.4 L 197.5 67 L 200.5 70 L 178.3 70 L 178.3 68.4 L 176.7 68.4 L 176.7 66.8 L 175.1 66.8 L 175.1 65.2 L 172.7 65.2 L 172.7 64.4 L 173.5 64.4 L 173.5 65.2 L 172.7 65.2 L 172.7 66 L 171.9 66 L 171.9 65.2 L 150.3 65.2 L 150.3 63.6 L 158.3 63.6 L 158.3 62.8 L 153.5 62.8 L 153.5 62 L 158.3 62 L 158.3 60.4 L 153.5 60.4 L 153.5 59.6 L 150.3 59.6 L 150.3 58.8 L 140.7 58.8 L 140.7 59.6 L 150.3 59.6 L 150.3 60.4 L 153.5 60.4 L 153.5 62 L 150.3 62 L 150.3 62.8 L 140.7 62.8 L 140.7 63.6 L 135.1 63.6 L 135.1 62 L 133.5 62 L 133.5 56.4 L 131.9 56.4 L 131.9 50 L 131.3 50 L 131.3 50.8 L 131.1 51 L 131.1 40.4 L 134.3 40.4 L 134.3 40.8 L 136.3 40.8 L 136.3 30.8 L 136.7 30.4 L 136.7 39.6 L 137.5 39.6 L 137.5 43.6 L 138.3 43.6 L 138.3 46.8 L 139.9 46.8 L 139.9 55.6 L 140.7 55.6 L 140.7 56.4 L 139.9 56.4 L 138.3 56.4 L 138.3 46.8 L 136.7 46.8 L 136.7 41.2 L 135.1 41.2 L 135.1 46.8 L 137.5 46.8 L 137.5 56.4 L 138.3 56.4 L 139.9 56.4 L 139.9 58.8 L 140.7 58.8 L 140.7 57.2 L 150.3 57.2 L 150.3 56.4 L 141.5 56.4 L 141.5 57.2 L 140.7 57.2 L 140.7 56.4 L 141.5 56.4 L 141.5 55.6 L 140.7 55.6 L 140.7 53.2 L 141.5 53.2 L 141.5 54 L 143.1 54 L 143.1 55.6 L 143.9 55.6 L 143.9 54 L 158.3 54 L 158.3 53.2 L 144.7 53.2 L 144.7 54 L 143.9 54 L 143.9 53.2 L 144.7 53.2 L 144.7 52.4 L 143.9 52.4 L 143.9 46.8 L 141.5 46.8 L 141.5 43.6 L 141.5 40.4 L 138.3 40.4 L 138.3 39.6 L 137.5 39.6 L 137.5 38 L 139.9 38 L 139.9 40.4 L 140.7 40.4 L 140.7 37.2 L 138.3 37.2 L 138.3 38 L 137.5 38 L 137.5 37.2 L 138.3 37.2 L 138.3 30 L 137.1 30 L 139.9 27.2 L 139.9 26.8 L 140.3 26.8 L 141.3 25.8 L 141.3 24.4 L 140.7 24.4 L 140.7 18 L 141.3 18 L 141.3 15.8 L 146.3 10.8 L 147.1 10.8 L 147.1 18 L 147.9 18 Z M 173.3 2.8 L 173.5 2.8 L 173.5 3 L 174.9 4.4 L 175.1 4.4 L 175.1 4.6 L 174.9 4.4 L 173.5 4.4 L 173.5 8.4 L 175.1 8.4 L 175.1 11.6 L 175.9 11.6 L 175.9 8.4 L 175.1 8.4 L 175.1 4.6 L 176.3 5.8 L 176.3 10.8 L 177.9 12.4 L 176.7 12.4 L 176.7 15.6 L 178.3 15.6 L 178.3 17.2 L 179.9 17.2 L 179.9 18.8 L 181.3 18.8 L 181.3 25.8 L 182.3 26.8 L 183.1 26.8 L 183.1 27.6 L 183.9 28.4 L 184.7 28.4 L 184.7 29.2 L 183.9 28.4 L 183.1 28.4 L 183.1 27.6 L 182.3 26.8 L 181.5 26.8 L 181.5 30 L 184.7 30 L 184.7 29.2 L 186.3 30.8 L 186.3 31.6 L 185.5 31.6 L 185.5 33.2 L 186.3 33.2 L 186.3 34.8 L 179.1 34.8 L 179.1 34 L 176.7 34 L 176.7 34.8 L 175.9 34.8 L 175.9 34 L 176.7 34 L 176.7 23.6 L 175.1 23.6 L 175.1 22 L 173.5 22 L 173.5 20.4 L 171.9 20.4 L 171.9 11.6 L 170.3 11.6 L 170.3 22 L 171.9 22 L 171.9 23.6 L 173.5 23.6 L 173.5 25.2 L 175.1 25.2 L 175.1 36.4 L 175.9 36.4 L 175.9 38 L 185.5 38 L 185.5 39.6 L 175.9 39.6 L 175.9 38 L 173.5 38 L 173.5 26.8 L 172.7 26.8 L 172.7 24.4 L 170.3 24.4 L 170.3 25.2 L 169.5 25.2 L 169.5 24.4 L 170.3 24.4 L 170.3 23.6 L 169.5 23.6 L 169.5 21.2 L 169.5 18 L 168.7 18 L 168.7 21.2 L 169.5 21.2 L 167.1 21.2 L 167.1 18 L 166.3 18 L 166.3 24.4 L 167.1 24.4 L 167.1 25.2 L 168.7 25.2 L 168.7 26.8 L 169.5 26.8 L 169.5 27.6 L 170.3 27.6 L 170.3 28.4 L 171.9 28.4 L 171.9 39.6 L 175.9 39.6 L 175.9 40.4 L 185.5 40.4 L 185.5 39.6 L 186.3 39.6 L 186.3 40.8 L 191.3 40.8 L 191.3 43.6 L 172.7 43.6 L 172.7 42.8 L 169.5 42.8 L 169.5 41.2 L 172.7 41.2 L 172.7 40.4 L 170.3 40.4 L 170.3 41.2 L 169.5 41.2 L 169.5 40.4 L 170.3 40.4 L 170.3 30 L 168.7 30 L 168.7 28.4 L 167.1 28.4 L 167.1 26.8 L 165.5 26.8 L 165.5 18 L 163.1 18 L 163.1 14 L 162.3 14 L 162.3 8.4 L 160.7 8.4 L 159.9 8.4 L 159.9 9.2 L 160.7 9.2 L 160.7 8.4 L 160.7 7.6 L 159.1 7.6 L 159.1 1.2 L 157.5 1.2 L 157.5 9.2 L 159.1 9.2 L 159.1 17.2 L 159.9 17.2 L 159.9 18 L 157.5 18 L 157.5 18.8 L 156.7 18.8 L 156.7 18 L 157.5 18 L 157.5 10.8 L 156.7 10.8 L 156.7 8.4 L 156.7 5.2 L 156.7 2 L 154.3 2 L 154.3 1.2 L 152.7 1.2 L 152.7 4.4 L 153.5 4.4 L 154.3 4.4 L 154.3 5.2 L 154.3 8.4 L 156.7 8.4 L 155.9 8.4 L 155.9 5.2 L 154.3 5.2 L 156.7 5.2 L 155.9 5.2 L 155.9 2.8 L 153.5 2.8 L 153.5 4.4 L 152.7 4.4 M 156.7 34 L 156.7 30.8 L 154.3 30.8 L 155.9 30.8 L 155.9 34 L 156.7 34 L 156.7 35.4 L 156.3 35.8 L 156.3 37.2 L 156.7 37.2 L 156.7 35.4 L 156.7 34 L 154.3 34 L 154.3 30.8 L 154.3 27.6 L 151.1 27.6 L 151.1 26.8 L 150.3 26.8 L 150.3 25.2 L 152.7 25.2 L 152.7 27.6 L 153.5 27.6 L 153.5 24.4 L 151.1 24.4 L 151.1 25.2 L 150.3 25.2 L 150.3 24.4 L 151.1 24.4 L 151.1 17.2 L 150.3 17.2 L 150.3 14.8 L 147.9 14.8 L 149.5 14.8 L 149.5 17.2 L 150.3 17.2 L 150.3 18 L 147.9 18 L 147.9 14.8 L 147.9 11.6 L 147.9 10.8 L 147.1 10.8 L 147.1 8.4 L 147.9 8.4 L 147.9 4.4 L 147.7 4.4 L 149.5 2.6 L 149.5 1.2 L 150.9 1.2 L 149.5 2.6 L 149.5 7.6 L 151.1 7.6 L 151.1 15.6 L 152.7 15.6 L 152.7 23.6 L 154.3 23.6 L 154.3 27.6 L 155.9 27.6 L 155.9 30.8 L 156.7 30.8 L 156.7 27.6 L 155.9 27.6 L 155.9 22 L 154.3 22 L 154.3 14 L 152.7 14 L 152.7 6 L 151.1 6 L 151.1 1.2 L 150.9 1.2 L 151.3 0.8 L 171.3 0.8 L 173.3 2.8 L 173.5 3 L 173.5 4.4 L 171.9 4.4 L 171.9 2.8 L 173.3 2.8 L 171.3 0.8 M 131.1 62.8 L 131.1 65.2 L 131.9 65.2 L 131.9 66 L 134.3 66 L 134.3 66.8 L 128.7 66.8 L 128.7 66 L 127.9 66 L 127.9 54.2 L 127.9 53.2 L 128.7 53.2 L 128.7 52.4 L 129.7 52.4 L 128.9 53.2 L 130.3 53.2 L 130.3 52.4 L 129.7 52.4 L 131.1 51 L 131.1 53.2 L 130.3 53.2 L 130.3 56.4 L 131.9 56.4 L 131.9 63.6 L 133.5 63.6 L 133.5 65.2 L 140.7 65.2 L 140.7 66 L 134.3 66 L 134.3 66.8 L 147.1 66.8 L 147.1 68.4 L 131.1 68.4 L 131.1 69.2 L 147.1 69.2 L 147.1 68.4 L 148.7 68.4 L 149.5 67.6 L 149.5 66.8 L 147.1 66.8 L 147.1 66 L 150.3 66 L 150.3 65.2 L 140.7 65.2 L 140.7 63.6 L 150.3 63.6 L 150.3 66 L 151.1 66 L 149.5 67.6 L 149.5 68.4 L 148.7 68.4 L 146.3 70.8 L 146.3 70 L 128.7 70 L 128.7 68.4 L 127.1 68.4 L 127.1 70 L 126.3 70 L 126.3 68.4 L 127.1 68.4 L 126.3 68.4 L 126.3 70 M 175.1 11.6 L 173.5 11.6 L 173.5 14.8 L 175.9 14.8 L 175.9 17.2 L 176.7 17.2 L 176.7 18 L 175.9 18 L 175.9 18.8 L 176.7 18.8 L 176.7 18 L 179.1 18 L 179.1 20.4 L 179.1 21.2 L 176.7 21.2 L 176.7 20.4 L 175.9 20.4 L 175.9 18.8 L 178.3 18.8 L 178.3 20.4 L 179.1 20.4 L 179.9 20.4 L 179.9 31.6 L 182.3 31.6 L 182.3 30.8 L 185.5 30.8 L 185.5 31.6 L 182.3 31.6 L 182.3 33.2 L 178.3 33.2 L 178.3 22 L 176.7 22 L 176.7 21.2 L 175.9 21.2 L 175.9 20.4 L 175.1 20.4 L 175.1 18.8 L 173.5 18.8 L 173.5 18 L 172.7 18 L 172.7 11.6 L 171.9 11.6 L 171.9 8.4 L 170.3 8.4 L 170.3 11.6 L 169.5 11.6 L 169.5 14.8 L 168.7 14.8 L 168.7 9.2 L 167.1 9.2 L 167.1 8.4 L 169.5 8.4 L 169.5 7.6 L 170.3 7.6 L 170.3 8.4 L 173.5 8.4 L 173.5 11.6 L 175.9 11.6 L 175.9 14.8 L 175.1 14.8 L 175.1 11.6 Z M 200.7 70.8 L 200.7 71.6 L 176.7 71.6 L 176.7 70.8 L 176.3 70.8 L 175.5 70 L 175.1 70 L 175.1 69.6 L 173.9 68.4 L 173.5 68.4 L 173.5 68 L 172.3 66.8 L 171.9 66.8 L 171.9 66.4 L 171.5 66 L 151.1 66 L 151.3 65.8 L 171.3 65.8 L 171.5 66 L 171.9 66 L 171.9 66.4 L 172.3 66.8 L 173.5 66.8 L 173.5 68 L 173.9 68.4 L 175.1 68.4 L 175.1 69.6 L 175.5 70 L 176.7 70 L 176.7 70.8 L 200.7 70.8 Z M 143.1 43.6 L 143.1 40.4 L 141.5 40.4 L 141.5 37.2 L 140.7 37.2 L 140.7 36.4 L 139.9 36.4 L 139.9 27.2 L 140.3 26.8 L 141.5 26.8 L 141.5 27.6 L 143.1 27.6 L 143.1 33.2 L 143.9 33.2 L 143.9 37.2 L 146.3 37.2 L 146.3 49.2 L 147.9 49.2 L 147.9 50.8 L 159.9 50.8 L 159.9 51.6 L 158.3 51.6 L 158.3 52.4 L 146.3 52.4 L 146.3 50.8 L 144.7 50.8 L 144.7 37.2 L 143.1 37.2 L 143.1 40.4 L 143.9 40.4 L 143.9 43.6 L 143.1 43.6 Z M 127.1 66.8 L 126.3 66.8 L 127.1 66.8 L 127.1 65.2 L 127.1 63.6 L 126.3 63.6 L 126.3 62 L 127.1 62 L 127.1 63.6 L 127.1 65.2 L 127.1 66.8 L 127.1 68.4 L 127.1 70.8 L 126.3 70.8 L 126.3 70 L 125.5 70 L 125.5 55.6 L 126.5 55.6 L 127.9 54.2 L 128.7 53.4 L 128.7 56.4 L 128.7 57.2 L 130.3 57.2 L 130.3 56.4 L 128.7 56.4 L 131.1 56.4 L 131.1 59.6 L 130.3 59.6 L 128.7 59.6 L 128.7 60.4 L 130.3 60.4 L 128.7 60.4 L 128.7 62 L 130.3 62 L 130.3 60.4 L 130.3 59.6 L 130.3 58.8 L 128.7 58.8 L 128.7 59.6 L 131.1 59.6 L 131.1 62.8 L 130.3 62.8 L 130.3 63.6 L 130.3 65.2 L 128.7 65.2 L 128.7 63.6 L 130.3 63.6 L 128.7 63.6 L 128.7 62.8 L 130.3 62.8 L 131.1 62.8 L 128.7 62.8 L 128.7 62 L 130.3 62 L 130.3 62.8 M 153.5 4.4 L 153.5 11.6 L 154.3 11.6 L 154.3 12.4 L 155.9 12.4 L 155.9 20.4 L 156.7 20.4 L 156.7 24.4 L 157.5 24.4 L 157.5 33.2 L 158.9 33.2 L 159.1 33.2 L 159.1 33 L 159.1 24.4 L 159.9 24.4 L 159.9 30.8 L 160.7 30.8 L 160.7 31.4 L 159.1 33 L 159.1 24.4 L 159.1 21.2 L 157.5 21.2 L 157.5 24.4 L 159.1 24.4 M 150.3 40.4 L 150.3 43.6 L 149.5 43.6 L 147.9 43.6 L 147.9 46.8 L 150.3 46.8 L 150.3 47.6 L 151.1 47.6 L 151.1 46.8 L 150.3 46.8 L 150.3 46 L 149.5 46 L 149.5 43.6 L 150.3 43.6 L 150.3 46 L 151.1 46 L 151.1 46.8 L 159.9 46.8 L 159.9 47.6 L 150.3 47.6 L 150.3 49.2 L 149.5 49.2 L 149.5 47.6 L 147.9 47.6 L 147.9 46.8 L 147.1 46.8 L 147.1 37.2 L 147.9 37.2 L 147.9 40.4 L 150.3 40.4 Z M 188.7 55.6 L 188.7 54 L 187.9 54 L 187.9 52.4 L 186.3 52.4 L 186.3 50.8 L 185.5 50.8 L 185.5 50 L 166.3 50 L 166.3 49.2 L 187.9 49.2 L 187.9 50.8 L 188.7 50.8 L 188.7 54 L 189.5 54 L 189.5 55.6 L 188.7 55.6 Z M 185.5 62.8 L 185.5 60.4 L 184.7 60.4 L 184.7 59.6 L 183.9 59.6 L 183.9 58.8 L 184.7 58.8 L 184.7 59.6 L 185.5 59.6 L 185.5 58.8 L 187.9 58.8 L 187.9 59.6 L 195.1 59.6 L 195.1 60.4 L 195.9 60.4 L 195.9 62 L 195.1 62 L 195.1 60.4 L 187.9 60.4 L 187.9 59.6 L 185.5 59.6 L 185.5 60.4 L 186.3 60.4 L 186.3 62 L 195.1 62 L 195.1 62.8 L 185.5 62.8 Z M 127.1 70.8 L 146.3 70.8 L 146.3 71.6 L 127.1 71.6 L 127.1 70.8 Z M 172.7 42.8 L 172.7 41.2 L 191.1 41.2 L 191.1 42.8 L 172.7 42.8 Z M 143.1 27.6 L 143.1 25.2 L 141.5 25.2 L 141.5 24.4 L 143.9 24.4 L 143.9 23.6 L 143.1 23.6 L 143.1 21.2 L 141.3 21.2 L 141.3 18 L 141.5 18 L 141.5 21.2 L 141.5 24.4 L 141.3 24.4 L 141.3 21.2 L 141.5 21.2 L 143.9 21.2 L 143.9 23.6 L 144.7 23.6 L 144.7 27.6 L 143.1 27.6 Z M 184.7 56.4 L 184.7 55.6 L 183.9 55.6 L 183.9 53.2 L 184.7 53.2 L 184.7 54 L 186.3 54 L 186.3 55.6 L 187.9 55.6 L 187.9 56.4 L 188.7 56.4 L 188.7 55.6 L 191.1 55.6 L 191.1 57.2 L 195.9 57.2 L 195.9 58.8 L 189.5 58.8 L 189.5 57.2 L 187.9 57.2 L 187.9 56.4 L 184.7 56.4 Z M 146.3 27.6 L 146.3 22 L 144.7 22 L 144.7 12.4 L 146.3 12.4 L 146.3 20.4 L 147.9 20.4 L 147.9 27.6 L 146.3 27.6 Z M 165.5 8.4 L 165.5 10.8 L 167.1 10.8 L 167.1 14.8 L 166.3 14.8 L 166.3 11.6 L 163.9 11.6 L 163.9 8.4 L 162.3 8.4 L 162.3 6 L 160.7 6 L 160.7 5.2 L 163.1 5.2 L 163.1 4.4 L 163.9 4.4 L 163.9 8.4 L 165.5 8.4 Z M 156.7 57.2 L 156.7 56.4 L 143.9 56.4 L 143.9 55.6 L 158.3 55.6 L 158.3 57.2 L 156.7 57.2 Z M 163.1 30.8 L 160.7 30.8 L 160.7 27.6 L 162.3 27.6 L 163.1 27.6 L 163.1 24.4 L 160.7 24.4 L 162.3 24.4 L 163.1 24.4 L 163.1 21.2 L 162.3 21.2 L 162.3 24.4 L 162.3 27.6 L 162.3 30 L 163.1 30 L 163.1 30.8 Z M 175.9 36.4 L 179.1 36.4 L 179.1 37.2 L 185.5 37.2 L 185.5 38 L 186.3 38 L 186.3 36.4 L 179.1 36.4 L 175.9 36.4 L 175.9 34.8 L 179.1 34.8 L 179.1 36.4 M 156.3 37.2 L 154.3 37.2 L 155.9 37.2 L 155.9 40.4 L 154.3 40.4 L 154.3 37.2 L 156.3 37.2 L 156.3 40.4 L 156.7 40.4 L 156.7 37.2 L 155.9 37.2 L 155.9 34 L 154.3 34 L 154.3 37.2 M 159.9 50.8 L 159.9 50 L 150.3 50 L 150.3 49.2 L 159.9 49.2 L 159.9 50 L 163.1 50 L 163.1 50.8 L 159.9 50.8 Z M 183.9 64.4 L 183.9 63.6 L 195.9 63.6 L 195.9 65.2 L 183.1 65.2 L 183.1 64.4 L 183.9 64.4 Z M 143.9 53.2 L 141.5 53.2 L 141.5 46.8 L 143.1 46.8 L 143.9 46.8 L 143.9 43.6 L 141.5 43.6 L 143.1 43.6 L 143.1 46.8 L 143.1 52.4 L 143.9 52.4 L 143.9 53.2 Z M 170.3 5.2 L 172.7 5.2 L 172.7 8.4 L 171.9 8.4 L 171.9 6 L 169.5 6 L 169.5 7.6 L 168.7 7.6 L 168.7 1.2 L 170.3 1.2 L 170.3 5.2 Z M 167.1 8.4 L 165.5 8.4 L 165.5 2.8 L 163.9 2.8 L 163.9 1.2 L 167.1 1.2 L 167.1 8.4 Z M 138.3 59.6 L 140.7 59.6 L 140.7 60.4 L 135.1 60.4 L 135.1 59.6 L 134.3 59.6 L 134.3 56.4 L 137.5 56.4 L 137.5 58.8 L 138.3 58.8 L 138.3 59.6 Z M 160.7 1.2 L 160.7 2 L 159.9 2 L 159.9 5.2 L 160.7 5.2 L 160.7 2 L 160.7 1.2 L 162.3 1.2 L 162.3 2 L 163.1 2 L 163.1 4.4 L 162.3 4.4 L 162.3 2 L 160.7 2 M 144.7 27.6 L 146.3 27.6 L 146.3 30 L 147.9 30 L 147.9 34 L 147.1 34 L 147.1 30.8 L 144.7 30.8 L 144.7 27.6 Z M 191.9 52.4 L 192.9 52.4 L 193.7 53.2 L 191.9 53.2 L 191.9 54 L 192.7 54 L 192.7 55.6 L 195.1 55.6 L 195.1 56.4 L 191.9 56.4 L 191.9 54 L 191.1 54 L 191.1 53.2 L 191.9 53.2 L 191.9 52.4 Z M 134.3 40.8 L 134.3 43.6 L 134.3 46.8 L 133.5 46.8 L 133.5 43.6 L 131.3 43.6 L 131.3 40.8 L 134.3 40.8 Z M 138.3 40.4 L 139.9 40.4 L 139.9 43.6 L 140.7 43.6 L 140.7 46.8 L 139.9 46.8 L 139.9 43.6 L 138.3 43.6 L 138.3 40.4 Z M 131.3 43.6 L 131.9 43.6 L 131.9 41.2 L 133.5 41.2 L 133.5 43.6 L 134.3 43.6 L 131.9 43.6 L 131.9 46.8 L 131.3 46.8 L 131.3 43.6 Z M 150.3 58.8 L 150.3 57.2 L 156.7 57.2 L 156.7 58.8 L 150.3 58.8 Z M 143.1 21.2 L 143.1 18 L 141.5 18 L 141.5 15.6 L 143.1 15.6 L 143.1 18 L 143.9 18 L 143.9 21.2 L 143.1 21.2 Z M 141.5 33.2 L 140.7 33.2 L 141.5 33.2 L 141.5 31.6 L 140.7 31.6 L 140.7 30 L 141.5 30 L 141.5 31.6 L 141.5 33.2 L 141.5 34.8 L 140.7 34.8 L 140.7 33.2 L 141.5 33.2 Z M 133.5 56.4 L 133.5 50 L 134.3 50 L 134.3 56.4 L 133.5 56.4 Z M 160.7 14 L 159.9 14 L 160.7 14 L 160.7 12.4 L 159.9 12.4 L 159.9 10.8 L 160.7 10.8 L 160.7 12.4 L 160.7 14 L 160.7 15.6 L 159.9 15.6 L 159.9 14 L 160.7 14 Z M 137.5 60.4 L 137.5 62 L 140.7 62 L 140.7 62.8 L 137.5 62.8 L 137.5 62 L 136.7 62 L 136.7 60.4 L 137.5 60.4 Z M 156.7 10.8 L 156.7 11.6 L 154.3 11.6 L 154.3 8.4 L 155.9 8.4 L 155.9 10.8 L 156.7 10.8 Z M 149.5 14.8 L 149.5 11.6 L 147.9 11.6 L 150.3 11.6 L 150.3 14.8 L 149.5 14.8 Z M 169.5 25.2 L 171.9 25.2 L 171.9 26.8 L 172.7 26.8 L 172.7 27.6 L 170.3 27.6 L 170.3 26.8 L 169.5 26.8 L 169.5 25.2 Z M 149.5 11.6 L 149.5 9.2 L 147.9 9.2 L 147.9 8.4 L 150.3 8.4 L 150.3 11.6 L 149.5 11.6 Z M 168.7 21.2 L 168.7 23.6 L 169.5 23.6 L 169.5 24.4 L 167.1 24.4 L 167.1 21.2 L 168.7 21.2 Z M 175.9 18 L 173.5 18 L 173.5 14.8 L 175.1 14.8 L 175.1 17.2 L 175.9 17.2 L 175.9 18 Z M 165.5 35 L 165.5 34.8 L 165.3 34.8 L 164.5 34 L 166.3 34 L 166.3 33.2 L 167.1 33.2 L 167.1 36.4 L 166.3 36.4 L 166.3 35.8 L 165.5 35 Z M 150.3 43.6 L 147.9 43.6 L 147.9 40.4 L 149.5 40.4 L 149.5 43.6 M 151.1 27.6 L 152.7 27.6 L 152.7 30.8 L 151.1 30.8 L 151.1 27.6 Z M 128.7 65.2 L 128.7 66 L 131.1 66 L 131.9 66 L 131.9 66.8 L 131.1 66.8 L 131.1 66 L 131.1 65.2 L 128.7 65.2 Z M 135.1 58.8 L 135.1 59.6 L 137.5 59.6 L 138.3 59.6 L 138.3 60.4 L 137.5 60.4 L 137.5 59.6 L 137.5 58.8 L 135.1 58.8 Z M 140.7 36.4 L 140.7 34.8 L 143.1 34.8 L 143.1 37.2 L 141.5 37.2 L 141.5 36.4 L 140.7 36.4 Z M 159.9 17.2 L 159.9 15.6 L 162.3 15.6 L 162.3 18 L 160.7 18 L 160.7 17.2 L 159.9 17.2 Z M 188.7 50.8 L 189.5 50.8 L 189.5 52.4 L 191.1 52.4 L 191.1 53.2 L 188.7 53.2 L 188.7 50.8 Z M 185.5 33.2 L 185.5 34 L 182.3 34 L 182.3 33.2 L 185.5 33.2 Z M 178.3 66 L 175.9 66 L 175.9 64.4 L 176.7 64.4 L 176.7 65.2 L 178.3 65.2 L 178.3 66 Z M 149.5 40.4 L 149.5 37.2 L 150.3 37.2 L 150.3 40.4 L 149.5 40.4 Z M 136.7 57.2 L 136.7 58.8 L 135.1 58.8 L 135.1 57.2 L 136.7 57.2 Z M 130.3 57.2 L 130.3 58.8 L 128.7 58.8 L 128.7 57.2 L 130.3 57.2 Z M 188.7 49.2 L 191.1 49.2 L 191.1 50 L 188.7 50 L 188.7 49.2 Z M 167.1 38 L 167.1 39.6 L 166.3 39.6 L 166.3 38 L 167.1 38 Z M 167.1 39.6 L 167.1 41.2 L 166.3 41.2 L 166.3 39.6 L 167.1 39.6 Z M 167.1 41.2 L 167.1 42.8 L 166.3 42.8 L 166.3 41.2 L 167.1 41.2 Z M 183.9 63.6 L 183.9 62 L 184.7 62 L 184.7 63.6 L 183.9 63.6 Z M 141.5 28.4 L 141.5 30 L 140.7 30 L 140.7 28.4 L 141.5 28.4 Z M 166.3 44.4 L 166.3 42.8 L 167.1 42.8 L 167.1 44.4 L 166.3 44.4 Z M 126.3 58.8 L 126.3 57.2 L 127.1 57.2 L 127.1 58.8 L 126.3 58.8 Z M 131.1 66.8 L 131.1 68.4 L 130.3 68.4 L 130.3 66.8 L 131.1 66.8 Z M 127.1 58.8 L 127.1 60.4 L 126.3 60.4 L 126.3 58.8 L 127.1 58.8 Z M 127.1 60.4 L 127.1 62 L 126.3 62 L 126.3 60.4 L 127.1 60.4 Z M 160.7 9.2 L 160.7 10.8 L 159.9 10.8 L 159.9 9.2 L 160.7 9.2 Z M 166.3 36.4 L 167.1 36.4 L 167.1 38 L 166.3 38 L 166.3 36.4 Z M 135.1 57.2 L 135.1 56.4 L 136.7 56.4 L 136.7 57.2 L 135.1 57.2 Z M 185.5 58.8 L 185.5 57.2 L 186.3 57.2 L 186.3 58.8 L 185.5 58.8 Z M 188.7 47.6 L 189.5 47.6 L 189.5 49.2 L 188.7 49.2 L 188.7 47.6 Z M 156.7 58.8 L 158.3 58.8 L 158.3 59.6 L 156.7 59.6 L 156.7 58.8 Z M 146.3 5.8 L 146.3 4.4 L 147.7 4.4 L 146.3 5.8 Z M 127.1 57.2 L 126.3 57.2 L 126.3 55.8 L 126.5 55.6 L 127.1 55.6 L 127.1 57.2 Z M 179.9 14.4 L 181.1 15.6 L 179.9 15.6 L 179.9 14.4 Z M 178.3 12.8 L 179.5 14 L 178.3 14 L 178.3 12.8 Z M 181.1 15.6 L 181.5 15.6 L 181.5 17.2 L 181.3 17.2 L 181.3 15.8 L 181.1 15.6 Z M 181.5 17.2 L 181.5 18.8 L 181.3 18.8 L 181.3 17.2 L 181.5 17.2 Z M 162.1 31.6 L 160.7 31.6 L 160.7 31.4 L 161.3 30.8 L 162.1 31.6 Z M 169.5 6 L 169.5 5.2 L 170.3 5.2 L 170.3 6 L 169.5 6 Z M 127.1 66.8 L 126.3 66.8 L 126.3 65.2 L 127.1 65.2 M 127.1 65.2 L 126.3 65.2 L 126.3 63.6 L 127.1 63.6 M 139.9 56.4 L 139.9 57.2 L 138.3 57.2 L 138.3 56.4 M 141.5 27.6 L 141.5 28.4 L 140.7 28.4 L 140.7 27.6 L 141.5 27.6 Z M 185.5 57.2 L 184.7 57.2 L 184.7 56.4 L 185.5 56.4 L 185.5 57.2 Z M 153.5 2.8 L 153.5 2 L 154.3 2 L 154.3 2.8 L 153.5 2.8 Z M 140.7 33.2 L 140.7 31.6 L 141.5 31.6 M 159.9 14 L 159.9 12.4 L 160.7 12.4 M 200.7 70.2 L 201.3 70.8 L 200.7 70.8 L 200.7 70.2 Z M 191.3 50 L 191.3 50.8 L 191.1 50.8 L 191.1 50 L 191.3 50 Z M 177.9 12.4 L 178.3 12.4 L 178.3 12.8 L 177.9 12.4 Z M 137.1 30 L 136.7 30.4 L 136.7 30 L 137.1 30 Z M 179.5 14 L 179.9 14 L 179.9 14.4 L 179.5 14 Z M 163.7 33.2 L 163.9 33.2 L 163.9 33.4 L 163.7 33.2 Z M 200.5 70 L 200.7 70 L 200.7 70.2 L 200.5 70 Z M 194.3 53.8 L 194.5 54 L 194.3 54 L 194.3 53.8 Z M 162.3 31.8 L 162.1 31.6 L 162.3 31.6 L 162.3 31.8 Z M 159.1 33.2 L 158.9 33.2 L 159.1 33" id="2" vector-effect="non-scaling-stroke"/><path d="M 258.1 5.8 L 258.1 5.2 L 249.7 5.2 L 245.3 0.8 L 235.3 0.8 L 230.3 5.8 L 229.3 5.8 L 229.3 34 L 226.1 34 L 226.1 5.8 L 226.1 8.4 L 222.9 8.4 L 222.9 5.8 L 226.1 5.8 L 229.3 5.8 L 229.3 5.2 L 222.9 5.2 L 222.9 5.8 L 220.3 5.8 L 217.7 8.4 L 216.5 8.4 L 216.5 9.6 L 211.3 14.8 L 210.1 14.8 L 210.1 21 L 205.3 25.8 L 205.3 50.8 L 206.9 52.4 L 206.9 24.4 L 210.1 24.4 L 210.1 50 L 213.3 50 L 213.3 46.8 L 216.5 46.8 L 216.5 53.2 L 219.7 53.2 L 219.7 56.4 L 222.9 56.4 L 222.9 59.6 L 226.1 59.6 L 226.1 62.8 L 222.9 62.8 L 222.9 66 L 261.3 66 L 261.3 69.2 L 219.7 69.2 L 219.7 66 L 216.5 66 L 216.5 62.8 L 219.7 62.8 L 219.7 59.6 L 216.5 59.6 L 216.5 56.4 L 210.3 56.4 L 210.3 55.8 L 210.1 55.6 L 210.1 53.2 L 207.7 53.2 L 206.9 52.4 L 206.9 53.2 L 207.7 53.2 L 210.1 55.6 L 210.1 59.6 L 210.3 59.6 L 210.3 60.8 L 220.3 70.8 L 260.3 70.8 L 265.1 66 L 267.7 66 L 267.7 65.8 L 270.3 65.8 L 270.3 60.8 L 275.3 55.8 L 275.3 50.8 L 270.3 45.8 L 250.3 45.8 L 249.3 46.8 L 248.5 46.8 L 248.5 47.6 L 242.9 53.2 L 242.1 53.2 L 242.1 54 L 240.3 55.8 L 238.9 54.4 L 238.9 56.4 L 232.5 56.4 L 232.5 53.2 L 229.3 53.2 L 229.3 56.4 L 226.1 56.4 L 226.1 53.2 L 222.9 53.2 L 222.9 50 L 219.7 50 L 219.7 46.8 L 226.1 46.8 L 226.1 50 L 229.3 50 L 229.3 46.8 L 231.3 46.8 L 232.5 48 L 232.5 50 L 234.5 50 L 235.7 51.2 L 235.7 53.2 L 237.7 53.2 L 238.9 54.4 L 238.9 53.2 L 237.7 53.2 L 235.7 51.2 L 235.7 50 L 234.5 50 L 232.5 48 L 232.5 46.8 L 231.3 46.8 L 230.3 45.8 L 230.3 25.8 L 234.9 21.2 L 245.5 21.2 L 248.5 21.2 L 248.5 27.2 L 248.7 27.6 L 251.7 27.6 L 251.7 30.8 L 250.3 30.8 L 248.7 27.6 L 248.5 27.6 L 248.5 27.2 L 245.5 21.2 L 234.9 21.2 L 232.5 21.2 L 232.5 18 L 251.7 18 L 251.7 24.4 L 254.9 24.4 L 254.9 27.6 L 270.9 27.6 L 270.9 30.2 L 275.3 25.8 L 275.3 20.8 L 260.3 5.8 L 258.1 5.8 Z M 242.1 54 L 242.9 53.2 L 274.1 53.2 L 274.1 56.4 L 242.1 56.4 L 242.1 54 Z M 216.5 9.6 L 217.7 8.4 L 219.7 8.4 L 219.7 11.6 L 222.9 11.6 L 222.9 37.2 L 219.7 37.2 L 219.7 14.8 L 216.5 14.8 L 216.5 9.6 Z M 248.5 47.6 L 249.3 46.8 L 270.9 46.8 L 270.9 50 L 248.5 50 L 248.5 47.6 Z M 249.7 5.2 L 250.3 5.8 L 258.1 5.8 L 258.1 8.4 L 245.3 8.4 L 245.3 5.2 L 249.7 5.2 Z M 238.9 8.4 L 238.9 2 L 242.1 2 L 242.1 8.4 L 238.9 8.4 Z M 267.7 24.4 L 267.7 21.2 L 274.1 21.2 L 274.1 24.4 L 267.7 24.4 Z M 261.3 14.8 L 261.3 11.6 L 264.5 11.6 L 264.5 14.8 L 261.3 14.8 Z M 254.9 21.2 L 254.9 18 L 258.1 18 L 258.1 21.2 L 254.9 21.2 Z M 232.5 8.4 L 232.5 5.2 L 235.7 5.2 L 235.7 8.4 L 232.5 8.4 Z M 264.5 14.8 L 267.7 14.8 L 267.7 18 L 264.5 18 L 264.5 14.8 Z M 210.3 56.4 L 213.3 56.4 L 213.3 59.6 L 210.3 59.6 L 210.3 56.4 Z M 211.3 14.8 L 213.3 14.8 L 213.3 18 L 210.3 18 L 210.3 15.8 L 211.3 14.8 Z M 234.9 21.2 L 235.3 20.8 L 245.3 20.8 L 245.5 21.2 M 270.9 30.2 L 270.9 30.8 L 270.3 30.8 L 270.9 30.2 Z" id="3" vector-effect="non-scaling-stroke"/><path d="M 303.6 4.8 L 303.2 4.8 L 303.2 5.2 L 301.2 5.2 L 303.2 5.2 L 303.2 7.2 L 303.6 7.2 L 303.2 7.2 L 303.2 8.4 L 301.2 8.4 L 303.2 8.4 L 303.2 9.6 L 303.6 9.6 L 303.2 9.6 L 303.2 11.6 L 301.2 11.6 L 301.2 8.4 L 301.2 5.2 L 301.2 2 L 300 2 L 300 14.8 L 298.8 14.8 L 298.8 0.8 L 301.2 0.8 L 301.2 2 L 303.2 2 L 303.2 2.4 L 303.6 2.4 L 303.6 0.8 L 305.6 0.8 L 307.2 2.4 L 308.4 2.4 L 308.4 3.6 L 307.2 2.4 L 306 2.4 L 306 14.8 L 308.4 14.8 L 308.4 26 L 309.6 26 L 309.6 38.8 L 313.2 38.8 L 330 38.8 L 330 43.2 L 327.6 43.2 L 327.6 40.8 L 315.6 40.8 L 315.6 38.8 L 310.8 38.8 L 310.8 26 L 313.2 26 L 313.2 16.8 L 310.8 16.8 L 310.8 26 L 309.6 26 L 309.6 14.8 L 308.4 14.8 L 308.4 3.6 L 310.6 5.8 L 310.6 15.8 L 315.6 15.8 L 315.6 26 L 313.2 26 L 313.2 38.8 L 313.2 43.2 L 325.2 43.2 L 325.2 43.6 L 325.6 43.6 L 325.6 45.6 L 327.6 45.6 L 327.6 51.6 L 328.8 51.6 L 328.8 53.2 L 332 53.2 L 332 56.4 L 338.4 56.4 L 338.4 53.6 L 345.6 60.8 L 345.6 65.8 L 350.6 70.8 L 320.6 70.8 L 319.4 69.6 L 346.8 69.6 L 346.8 67.2 L 320.4 67.2 L 320.4 64.8 L 318 64.8 L 318 55.2 L 316 55.2 L 316 53.2 L 315.6 53.2 L 315.6 52.8 L 309.6 52.8 L 309.6 51.6 L 304.8 51.6 L 304.8 46.8 L 300 46.8 L 300 30.8 L 296.4 30.8 L 296.4 14.8 L 294 14.8 L 294 14.4 L 293.6 14.4 L 293.6 14.8 L 291.6 14.8 L 294 14.8 L 294 62.4 L 309.6 62.4 L 309.6 64.8 L 291.6 64.8 L 291.6 14.8 L 291.6 11.6 L 291.6 8.4 L 291.6 5.2 L 291.6 2 L 290.4 2 L 290.4 66 L 309.6 66 L 309.6 64.8 L 310.6 64.8 L 310.6 67.2 L 289.2 67.2 L 289.2 0.8 L 291.6 0.8 L 291.6 2 L 293.6 2 L 293.6 2.4 L 294 2.4 L 293.6 2.4 L 293.6 4.8 L 294 4.8 L 294 2.4 L 294 0.8 L 296.4 0.8 L 296.4 14.8 L 298.8 14.8 L 298.8 30.8 L 303.6 30.8 L 303.6 46.8 L 303.6 52.8 L 309.6 52.8 L 309.6 53.2 L 315.6 53.2 L 315.6 55.2 L 316 55.2 L 316 56.4 L 313.2 56.4 L 313.2 55.2 L 309.6 55.2 L 309.6 56.4 L 310.6 56.4 L 310.6 57.6 L 310.8 57.6 L 310.8 60 L 310.6 60 L 310.6 57.6 L 309.6 57.6 L 309.6 56.4 L 300 56.4 L 300 46.8 L 296.4 46.8 L 296.4 30.8 L 298.8 30.8 L 298.8 46.8 L 303.6 46.8 L 304.8 46.8 L 304.8 30.8 L 300 30.8 L 300 14.8 L 303.6 14.8 L 303.6 14.4 L 303.2 14.4 L 303.2 14.8 L 301.2 14.8 L 301.2 11.6 L 303.2 11.6 L 303.2 12 L 303.6 12 L 303.2 12 L 303.2 14.4 L 303.6 14.4 L 303.6 12 L 303.6 9.6 L 303.6 7.2 L 303.6 4.8 Z M 310.6 69.6 L 310.6 70.8 L 285.6 70.8 L 285.6 0.8 L 286.8 0.8 L 286.8 0 L 289.2 0 L 289.2 0.8 L 286.8 0.8 L 286.8 69.6 L 310.6 69.6 Z M 332.4 50.4 L 332.4 50 L 332.4 48 L 332.4 45.6 L 332 45.6 L 332 48 L 332.4 48 L 332.4 50 L 332.4 50.4 L 334.8 50.4 L 334.8 52.8 L 335.2 52.8 L 335.2 53.2 L 337.2 53.2 L 337.2 55.2 L 332.4 55.2 L 332.4 52.8 L 330 52.8 L 330 51.6 L 328.8 51.6 L 328.8 43.6 L 330 43.6 L 330 43.2 L 330.4 43.2 L 330.4 38.8 L 330 38.8 L 330 38.4 L 317.6 38.4 L 317.6 38.8 L 315.6 38.8 L 315.6 26 L 317.6 26 L 317.6 26.4 L 318 26.4 L 317.6 26.4 L 317.6 28.8 L 318 28.8 L 318 26.4 L 318 9.6 L 316.8 9.6 L 320.4 6 L 320.4 4.8 L 321.6 4.8 L 320.4 6 L 320.4 8.4 L 320.4 11.6 L 320.4 14.8 L 320.4 18 L 322.4 18 L 322.4 16.8 L 322.8 16.8 L 322.8 33.6 L 330 33.6 L 330 36 L 320.4 36 L 320.4 18 L 319.2 18 L 319.2 8.4 L 320.4 8.4 L 320.4 6 M 320.4 8.4 L 322.4 8.4 L 322.4 9.6 L 322.8 9.6 L 322.4 9.6 L 322.4 11.6 L 320.4 11.6 L 322.4 11.6 L 322.4 12 L 322.8 12 L 322.4 12 L 322.4 14.4 L 322.8 14.4 L 322.8 12 L 322.8 9.6 L 322.8 4.8 L 321.6 4.8 L 325.2 1.2 L 325.2 0 L 327.6 0 L 327.6 0.8 L 330 0.8 L 330 2 L 332 2 L 332 2.4 L 332.4 2.4 L 332 2.4 L 332 4.8 L 332.4 4.8 L 332.4 2.4 L 332.4 0.8 L 334.8 0.8 L 334.8 21.6 L 339.6 21.6 L 339.6 19.2 L 337.2 19.2 L 337.2 0.8 L 339.6 0.8 L 339.6 2 L 341.6 2 L 341.6 2.4 L 342 2.4 L 342 0.8 L 345.6 0.8 L 345.6 10.8 L 341.6 14.8 L 341.6 14.4 L 339.6 14.4 L 339.6 11.6 L 341.6 11.6 L 341.6 12 L 342 12 L 342 9.6 L 342 7.2 L 342 4.8 L 341.6 4.8 L 341.6 5.2 L 339.6 5.2 L 339.6 8.4 L 339.6 11.6 L 341.6 11.6 L 341.6 9.6 L 342 9.6 L 341.6 9.6 L 341.6 8.4 L 339.6 8.4 L 341.6 8.4 L 341.6 7.2 L 342 7.2 L 341.6 7.2 L 341.6 5.2 L 341.6 4.8 M 322.4 52.8 L 322.8 52.8 L 322.8 55.2 L 322.4 55.2 L 322.4 56.4 L 320.4 56.4 L 320.4 53.2 L 322.4 53.2 L 322.4 55.2 L 322.8 55.2 L 322.8 57.6 L 322.8 59.6 L 320.4 59.6 L 320.4 62.4 L 322.8 62.4 L 322.8 64.8 L 344.4 64.8 L 344.4 62.8 L 325.6 62.8 L 325.6 62.4 L 325.2 62.4 L 325.2 60 L 322.8 60 L 322.8 59.6 L 325.6 59.6 L 325.6 62.4 L 344.4 62.4 L 344.4 62.8 L 344.8 62.8 L 344.8 66 L 322.4 66 L 322.4 62.8 L 319.2 62.8 L 319.2 52.8 L 320.4 52.8 L 320.4 53.2 L 322.4 53.2 L 322.4 52.8 Z M 332 4.8 L 332.4 4.8 L 332.4 7.2 L 332.4 9.6 L 332.4 12 L 332.4 14.4 L 332 14.4 L 332 12 L 332.4 12 L 332 12 L 332 11.6 L 330 11.6 L 330 14.8 L 330 18 L 330 21.2 L 330 24.4 L 330 26.4 L 334.8 26.4 L 334.8 24.4 L 330 24.4 L 332 24.4 L 332 24 L 332.4 24 L 332.4 21.6 L 332 21.6 L 332 24 L 334.8 24 L 334.8 24.4 L 335.2 24.4 L 335.2 27.6 L 328.8 27.6 L 328.8 2 L 330 2 L 330 5.2 L 330 8.4 L 330 11.6 L 332 11.6 L 332 9.6 L 332.4 9.6 L 332 9.6 L 332 8.4 L 330 8.4 L 332 8.4 L 332 7.2 L 332.4 7.2 L 332 7.2 L 332 5.2 L 330 5.2 L 332 5.2 L 332 4.8 Z M 310.8 38.8 L 310.8 45.6 L 319.2 45.6 L 319.2 46.8 L 322.8 46.8 L 322.8 48 L 325.2 48 L 325.2 51.6 L 327.6 51.6 L 327.6 55.2 L 330 55.2 L 330 57.6 L 342 57.6 L 342 60 L 327.6 60 L 327.6 57.6 L 325.2 57.6 L 325.2 51.6 L 322.8 51.6 L 322.8 52.8 L 322.4 52.8 L 322.4 51.6 L 322.8 51.6 L 322.8 50.4 L 322.4 50.4 L 322.4 50 L 320.4 50 L 320.4 48 L 309.6 48 L 309.6 38.8 L 310.8 38.8 Z M 341.6 5.2 L 339.6 5.2 L 339.6 2 L 338.4 2 L 338.4 18 L 340.6 18 L 340.6 15.8 L 341.6 14.8 L 341.6 18 L 340.6 18 L 340.6 20.8 L 335.6 25.8 L 335.6 30.8 L 334.8 30.8 L 334.8 31.2 L 330.6 31.2 L 330.6 40.8 L 335.6 45.8 L 335.6 50.8 L 338 53.2 L 338.4 53.2 L 338.4 53.6 L 338 53.2 L 337.2 53.2 L 337.2 52.8 L 335.2 52.8 L 335.2 50 L 332.4 50 M 325.2 1.2 L 325.6 0.8 L 327.6 0.8 L 327.6 28.8 L 334.8 28.8 L 334.8 30.8 L 330.6 30.8 L 330.6 31.2 L 325.2 31.2 L 325.2 1.2 Z M 309.6 57.6 L 309.6 60 L 296.4 60 L 296.4 46.8 L 298.8 46.8 L 298.8 57.6 L 309.6 57.6 Z M 306 14.8 L 306 26 L 304.8 26 L 304.8 30.8 L 303.6 30.8 L 303.6 14.8 L 306 14.8 Z M 293.6 4.8 L 294 4.8 L 294 7.2 L 294 9.6 L 294 12 L 293.6 12 L 293.6 11.6 L 291.6 11.6 L 293.6 11.6 L 293.6 9.6 L 294 9.6 L 293.6 9.6 L 293.6 8.4 L 291.6 8.4 L 293.6 8.4 L 293.6 7.2 L 294 7.2 L 293.6 7.2 L 293.6 5.2 L 291.6 5.2 L 293.6 5.2 L 293.6 4.8 Z M 332.4 14.4 L 332.4 16.8 L 332.4 19.2 L 332.4 21.6 L 332 21.6 L 332 21.2 L 330 21.2 L 332 21.2 L 332 19.2 L 332.4 19.2 L 332 19.2 L 332 18 L 330 18 L 332 18 L 332 16.8 L 332.4 16.8 L 332 16.8 L 332 14.8 L 330 14.8 L 332 14.8 L 332 14.4 L 332.4 14.4 Z M 309.6 51.6 L 309.6 50.4 L 318 50.4 L 318 51.6 L 319.2 51.6 L 319.2 52.8 L 318 52.8 L 318 51.6 L 309.6 51.6 Z M 313.2 56.4 L 313.2 57.6 L 315.6 57.6 L 315.6 60.8 L 311.2 56.4 L 310.6 56.4 L 310.6 55.8 L 311.2 56.4 L 313.2 56.4 Z M 317.6 38.4 L 317.6 36 L 318 36 L 318 33.6 L 317.6 33.6 L 317.6 31.2 L 318 31.2 L 318 33.6 L 318 36 L 318 38.4 L 317.6 38.4 Z M 310.6 60 L 310.6 62.4 L 310.8 62.4 L 310.8 64.8 L 310.6 64.8 L 310.6 62.4 L 309.6 62.4 L 309.6 60 L 310.6 60 Z M 320.4 59.6 L 320.4 56.4 L 322.4 56.4 L 322.4 57.6 L 322.8 57.6 L 322.4 57.6 L 322.4 59.6 L 320.4 59.6 Z M 322.8 14.4 L 322.8 16.8 L 322.4 16.8 L 322.4 14.8 L 320.4 14.8 L 322.4 14.8 L 322.4 14.4 L 322.8 14.4 Z M 332.4 45.6 L 332 45.6 L 332 43.6 L 330.4 43.6 L 330.4 43.2 L 332.4 43.2 L 332.4 45.6 Z M 339.6 0.8 L 339.6 0 L 342 0 L 342 0.8 L 339.6 0.8 Z M 291.6 0.8 L 291.6 0 L 294 0 L 294 0.8 L 291.6 0.8 Z M 296.4 0.8 L 296.4 0 L 298.8 0 L 298.8 0.8 L 296.4 0.8 Z M 301.2 0.8 L 301.2 0 L 303.6 0 L 303.6 0.8 L 301.2 0.8 Z M 330 0.8 L 330 0 L 332.4 0 L 332.4 0.8 L 330 0.8 Z M 334.8 0.8 L 334.8 0 L 337.2 0 L 337.2 0.8 L 334.8 0.8 Z M 341.6 4.8 L 341.6 2.4 L 342 2.4 L 342 4.8 L 341.6 4.8 Z M 303.2 4.8 L 303.2 2.4 L 303.6 2.4 L 303.6 4.8 L 303.2 4.8 Z M 317.6 28.8 L 318 28.8 L 318 31.2 L 317.6 31.2 L 317.6 28.8 Z M 341.6 14.4 L 341.6 12 L 342 12 L 342 14.4 L 341.6 14.4 Z M 294 14.4 L 293.6 14.4 L 293.6 12 L 294 12 L 294 14.4 Z M 310.6 67.2 L 310.8 67.2 L 310.8 69.6 L 310.6 69.6 L 310.6 67.2 Z M 317 67.2 L 315.6 67.2 L 315.6 65.8 L 317 67.2 Z M 319.4 69.6 L 318 69.6 L 318 68.2 L 319.4 69.6 Z M 315.6 10.8 L 315.6 9.6 L 316.8 9.6 L 315.6 10.8 Z M 318 68.2 L 317 67.2 L 318 67.2 L 318 68.2 Z M 318 33.6 L 317.6 33.6 L 317.6 36 L 318 36 M 332.4 48 L 332 48 L 332 50 L 332.4 50" id="4" vector-effect="non-scaling-stroke"/><path d="M 412.1 70.8 L 357.1 70.8 L 357.1 0.8 L 377.1 0.8 L 382.1 5.8 L 382.1 50.8 L 407.1 50.8 L 409.5 53.2 L 409.9 53.2 L 409.9 53.6 L 412.1 55.8 L 412.1 59.6 L 413.1 59.6 L 413.1 62.8 L 412.1 62.8 L 412.1 59.6 L 368.3 59.6 L 368.3 2 L 365.1 2 L 365.1 62.8 L 412.1 62.8 L 412.1 66 L 413.1 66 L 413.1 69.2 L 412.1 69.2 L 412.1 66 L 361.9 66 L 361.9 2 L 358.7 2 L 358.7 69.2 L 412.1 69.2 L 412.1 70.8 Z M 409.5 53.2 L 409.9 53.6 L 409.9 56.4 L 371.5 56.4 L 371.5 2 L 374.7 2 L 374.7 53.2 L 409.5 53.2 Z M 377.9 50 L 377.9 5.2 L 381.1 5.2 L 381.1 50 L 377.9 50 Z" id="5" vector-effect="non-scaling-stroke"/><path d="M 426.9 39.6 L 426.9 34.8 L 426.9 30 L 425.7 30 L 425.7 25.2 L 423.3 25.2 L 426.9 25.2 L 426.9 28.8 L 436.5 28.8 L 436.5 40.8 L 437.7 40.8 L 437.7 28.8 L 430.5 28.8 L 430.5 16.8 L 430.5 4.8 L 436.5 4.8 L 436.5 1.2 L 432.9 1.2 L 432.9 0.8 L 439.7 0.8 L 444.7 5.8 L 444.7 57.6 L 441.3 57.6 L 441.3 54 L 437.7 54 L 437.7 52.8 L 430.5 52.8 L 430.5 40.8 L 426.9 40.8 L 436.5 40.8 L 436.5 52.8 L 437.7 52.8 L 437.7 40.8 L 430.5 40.8 L 430.5 28.8 L 426.9 28.8 L 426.9 30 L 426.9 34.8 L 426.9 39.6 L 425.7 39.6 L 425.7 34.8 L 426.9 34.8 M 420.9 0.8 L 420.9 69.6 L 444.7 69.6 L 444.7 67.2 L 444.9 67.2 L 444.9 69.6 L 444.7 69.6 L 444.7 70.8 L 419.7 70.8 L 419.7 0.8 L 420.9 0.8 Z M 422.1 55.2 L 423.3 55.2 L 423.3 57.6 L 422.1 57.6 L 422.1 55.2 L 422.1 52.8 L 422.1 50.4 L 423.3 50.4 L 423.3 52.8 L 422.1 52.8 L 422.1 55.2 L 423.3 55.2 L 423.3 54 L 426.9 54 L 426.9 52.8 L 436.5 52.8 L 436.5 54 L 437.7 54 L 437.7 57.6 L 441.3 57.6 L 441.3 58.8 L 437.7 58.8 L 437.7 60 L 444.7 60 L 444.9 60 L 444.9 57.6 L 444.7 57.6 L 444.7 60 L 437.7 60 L 437.7 63.6 L 423.3 63.6 L 423.3 64.8 L 422.1 64.8 L 422.1 62.4 L 423.3 62.4 L 423.3 63.6 L 437.7 63.6 L 441.3 63.6 L 441.3 67.2 L 441.3 68.4 L 422.1 68.4 L 422.1 67.2 L 441.3 67.2 L 444.7 67.2 L 444.7 60 M 426.9 25.2 L 426.9 20.4 L 425.7 20.4 L 425.7 15.6 L 423.3 15.6 L 426.9 15.6 L 426.9 16.8 L 436.5 16.8 L 436.5 28.8 L 437.7 28.8 L 437.7 16.8 L 430.5 16.8 L 426.9 16.8 L 426.9 20.4 L 426.9 25.2 L 425.7 25.2 L 425.7 20.4 L 423.3 20.4 L 423.3 21.6 L 422.1 21.6 L 422.1 19.2 L 423.3 19.2 L 423.3 16.8 L 423.3 15.6 L 423.3 14.4 L 422.1 14.4 L 422.1 16.8 L 423.3 16.8 L 423.3 19.2 L 422.1 19.2 L 422.1 21.6 L 422.1 24 L 423.3 24 L 423.3 21.6 L 422.1 21.6 M 426.9 15.6 L 426.9 10.8 L 426.9 6 L 426.9 4.8 L 426.9 1.2 L 423.3 1.2 L 423.3 0.8 L 430.5 0.8 L 430.5 4.8 L 426.9 4.8 L 426.9 6 L 426.9 10.8 L 426.9 15.6 L 425.7 15.6 L 425.7 10.8 L 426.9 10.8 M 422.1 45.6 L 423.3 45.6 L 423.3 48 L 422.1 48 L 422.1 45.6 L 422.1 43.2 L 422.1 40.8 L 423.3 40.8 L 423.3 43.2 L 422.1 43.2 L 422.1 45.6 L 423.3 45.6 L 423.3 44.4 L 425.7 44.4 L 425.7 49.2 L 426.9 49.2 L 426.9 44.4 L 423.3 44.4 L 423.3 43.2 L 422.1 43.2 M 425.7 34.8 L 425.7 30 L 423.3 30 L 423.3 31.2 L 422.1 31.2 L 422.1 28.8 L 423.3 28.8 L 423.3 26.4 L 423.3 25.2 L 423.3 24 L 422.1 24 L 422.1 26.4 L 423.3 26.4 L 423.3 28.8 L 422.1 28.8 L 422.1 31.2 L 422.1 33.6 L 423.3 33.6 L 423.3 31.2 L 422.1 31.2 M 426.9 52.8 L 426.9 54 L 426.9 58.8 L 426.9 63.6 L 425.7 63.6 L 425.7 58.8 L 426.9 58.8 L 423.3 58.8 L 425.7 58.8 L 425.7 63.6 M 437.7 60 L 430.5 60 L 430.5 52.8 L 426.9 52.8 L 436.5 52.8 M 436.5 16.8 L 436.5 4.8 L 437.7 4.8 L 437.7 16.8 L 436.5 16.8 Z M 426.9 40.8 L 426.9 44.4 L 425.7 44.4 L 425.7 39.6 L 423.3 39.6 L 423.3 40.8 L 422.1 40.8 L 422.1 38.4 L 423.3 38.4 L 423.3 39.6 L 426.9 39.6 L 426.9 40.8 Z M 425.7 58.8 L 425.7 54 L 425.7 49.2 L 423.3 49.2 L 426.9 49.2 L 426.9 52.8 M 425.7 39.6 L 425.7 34.8 L 423.3 34.8 L 423.3 36 L 423.3 38.4 L 422.1 38.4 L 422.1 36 L 423.3 36 L 423.3 38.4 M 425.7 10.8 L 425.7 6 L 423.3 6 L 423.3 7.2 L 422.1 7.2 L 422.1 4.8 L 423.3 4.8 L 423.3 6 L 426.9 6 M 425.7 15.6 L 425.7 10.8 L 423.3 10.8 L 423.3 12 L 423.3 14.4 L 422.1 14.4 L 422.1 12 L 423.3 12 L 423.3 14.4 M 423.3 62.4 L 423.3 60 L 422.1 60 L 422.1 57.6 L 423.3 57.6 L 423.3 58.8 L 423.3 60 L 423.3 62.4 L 422.1 62.4 L 422.1 60 L 423.3 60 M 437.7 63.6 L 437.7 64.8 L 425.7 64.8 L 425.7 63.6 L 423.3 63.6 M 422.1 38.4 L 422.1 36 L 422.1 33.6 L 423.3 33.6 L 423.3 34.8 L 426.9 34.8 M 422.1 14.4 L 422.1 12 L 422.1 9.6 L 423.3 9.6 L 423.3 10.8 L 426.9 10.8 M 432.9 2.4 L 432.9 4.8 L 431.7 4.8 L 431.7 2.4 L 432.9 2.4 Z M 423.3 2.4 L 423.3 4.8 L 422.1 4.8 L 422.1 2.4 L 423.3 2.4 Z M 423.3 64.8 L 423.3 67.2 L 422.1 67.2 L 422.1 64.8 L 423.3 64.8 Z M 423.3 7.2 L 423.3 9.6 L 422.1 9.6 L 422.1 7.2 L 423.3 7.2 Z M 423.3 48 L 423.3 49.2 L 423.3 50.4 L 422.1 50.4 L 422.1 48 L 423.3 48 Z M 430.5 0.8 L 430.5 0 L 432.9 0 L 432.9 0.8 L 430.5 0.8 Z M 423.3 0.8 L 420.9 0.8 L 420.9 0 L 423.3 0 L 423.3 0.8 Z M 426.9 54 L 425.7 54 L 425.7 49.2 M 422.1 52.8 L 423.3 52.8 L 423.3 54 L 426.9 54 M 432.9 1.2 L 432.9 2.4 L 431.7 2.4 L 431.7 1.2 L 432.9 1.2 Z M 423.3 1.2 L 423.3 2.4 L 422.1 2.4 L 422.1 1.2 L 423.3 1.2 Z M 423.3 19.2 L 423.3 20.4 L 426.9 20.4 M 423.3 28.8 L 423.3 30 L 426.9 30 M 423.3 26.4 L 422.1 26.4 L 422.1 28.8 M 426.9 6 L 425.7 6 L 425.7 4.8 L 426.9 4.8 M 423.3 16.8 L 422.1 16.8 L 422.1 19.2" id="6" vector-effect="non-scaling-stroke"/><path d="M 474.7 36 L 474.5 36 L 474.5 45.6 L 474.7 45.6 L 474.7 46 L 474.5 45.8 L 474.5 45.6 L 472.3 45.6 L 472.3 38.4 L 469.9 38.4 L 469.9 36 L 467.5 36 L 467.5 5.8 L 465.1 5.8 L 465.1 38.4 L 467.5 38.4 L 467.5 40.8 L 469.9 40.8 L 469.9 46.8 L 473.5 46.8 L 473.5 48 L 474.7 48 L 474.7 46 L 476.7 48 L 477.1 48 L 477.1 48.4 L 479.1 50.4 L 479.5 50.4 L 479.5 50.8 L 481.5 52.8 L 481.9 52.8 L 481.9 53.2 L 481.5 52.8 L 479.5 52.8 L 479.5 50.8 L 479.1 50.4 L 477.1 50.4 L 477.1 48.4 L 476.7 48 L 473.5 48 L 473.5 50.4 L 474.7 50.4 L 474.7 52.8 L 477.1 52.8 L 477.1 55.2 L 481.9 55.2 L 481.9 53.2 L 484.5 55.8 L 486.7 53.6 L 486.7 55.2 L 515.1 55.2 L 515.5 54.8 L 515.5 55.2 L 515.1 55.2 L 514.5 55.8 L 514.5 57.6 L 475.9 57.6 L 475.9 58.8 L 472.3 58.8 L 472.3 60 L 514.5 60 L 514.5 60.8 L 510.7 64.6 L 510.7 62.4 L 469.9 62.4 L 469.9 60 L 467.5 60 L 467.5 57.6 L 465.1 57.6 L 465.1 56.4 L 463.9 56.4 L 463.9 55.2 L 462.7 55.2 L 462.7 48 L 460.3 48 L 460.3 45.6 L 457.9 45.6 L 457.9 14.4 L 455.9 14.4 L 460.3 10 L 460.3 9.6 L 460.7 9.6 L 464.5 5.8 L 465.1 5.8 L 465.1 4.8 L 467.5 4.8 L 467.5 5.8 L 469.5 5.8 L 469.9 5.4 L 469.9 33.6 L 472.3 33.6 L 472.3 36 L 474.5 36 L 474.7 36 L 474.7 33.6 L 474.5 33.6 L 474.5 36 M 505.9 67.2 L 505.9 69.4 L 505.7 69.6 L 505.9 69.6 L 505.9 69.4 L 505.9 67.2 L 466.3 67.2 L 466.3 63.6 L 462.7 63.6 L 462.7 64.8 L 461.5 64.8 L 461.5 63.6 L 462.7 63.6 L 462.7 62.4 L 461.5 62.4 L 461.5 58.8 L 457.9 58.8 L 457.9 60 L 456.7 60 L 456.7 58.8 L 457.9 58.8 L 457.9 52.8 L 456.7 52.8 L 456.7 49.2 L 453.1 49.2 L 453.1 19.2 L 451.1 19.2 L 455.5 14.8 L 455.5 14.4 L 455.9 14.4 L 455.5 14.8 L 455.5 48 L 457.9 48 L 457.9 50.4 L 460.3 50.4 L 460.3 57.6 L 462.7 57.6 L 462.7 60 L 465.1 60 L 465.1 62.4 L 467.5 62.4 L 467.5 64.8 L 510.5 64.8 L 510.7 64.8 L 510.7 64.6 L 510.5 64.8 L 467.5 64.8 M 491.5 2.8 L 491.5 2.4 L 491.1 2.4 L 489.5 0.8 L 486.7 0.8 L 486.7 19.2 L 489.1 19.2 L 489.1 21.6 L 491.5 21.6 L 491.5 24 L 517.9 24 L 517.9 25.8 L 519.5 25.8 L 519.5 20.8 L 504.5 5.8 L 503.5 5.8 L 503.5 6 L 499.9 6 L 499.9 7.2 L 501.1 7.2 L 501.1 9.6 L 503.5 9.6 L 503.5 10.8 L 504.7 10.8 L 504.7 9.6 L 504.7 7.2 L 503.5 7.2 L 503.5 6 L 504.7 6 L 504.7 7.2 L 505.9 7.2 L 505.9 9.6 L 504.7 9.6 L 508.3 9.6 L 508.3 12 L 503.5 12 L 503.5 10.8 L 499.9 10.8 L 499.9 7.2 L 498.7 7.2 L 498.7 5.8 L 503.5 5.8 L 503.5 4.8 L 498.7 4.8 L 498.7 5.8 L 496.3 5.8 L 496.3 9.6 L 498.7 9.6 L 498.7 12 L 501.1 12 L 501.1 14.4 L 513.1 14.4 L 513.1 16.8 L 498.7 16.8 L 498.7 14.4 L 496.3 14.4 L 496.3 12 L 493.9 12 L 493.9 5.2 L 491.5 2.8 Z M 481.9 0.8 L 479.5 0.8 L 479.5 0 L 481.9 0 L 481.9 0.8 L 481.9 23.4 L 481.3 24 L 481.9 24 L 481.9 23.4 L 481.9 0.8 L 484.3 0.8 L 484.3 0 L 486.7 0 L 486.7 0.8 L 484.3 0.8 L 484.3 21 L 484.3 21.6 L 485.3 21.6 L 486.7 23 L 486.7 24 L 487.7 24 L 489.1 25.4 L 489.1 26.4 L 517.9 26.4 L 517.9 25.8 L 489.5 25.8 L 489.1 25.4 L 489.1 24 L 487.7 24 L 486.7 23 L 486.7 21.6 L 485.3 21.6 L 484.5 20.8 L 484.3 21 L 484.3 21.6 M 505.7 69.6 L 504.5 70.8 L 464.5 70.8 L 463.3 69.6 L 462.7 69.6 L 462.7 69 L 462.1 68.4 L 461.5 68.4 L 461.5 67.8 L 460.9 67.2 L 460.3 67.2 L 460.3 66.6 L 458.5 64.8 L 457.9 64.8 L 457.9 64.2 L 457.3 63.6 L 456.7 63.6 L 456.7 63 L 456.1 62.4 L 455.5 62.4 L 455.5 61.8 L 454.5 60.8 L 454.5 55.8 L 453.9 55.2 L 455.5 55.2 L 455.5 61.8 L 456.1 62.4 L 456.7 62.4 L 456.7 63 L 457.3 63.6 L 457.9 63.6 L 457.9 64.2 L 458.5 64.8 L 460.3 64.8 L 460.3 66.6 L 460.9 67.2 L 461.5 67.2 L 461.5 67.8 L 462.1 68.4 L 462.7 68.4 L 462.7 69 L 463.3 69.6 L 505.7 69.6 Z M 517.9 34.2 L 519.5 35.8 L 519.5 38.4 L 520.3 38.4 L 520.3 40.8 L 519.5 40.8 L 519.5 43.2 L 484.5 43.2 L 486.7 43.2 L 486.7 40.8 L 484.5 40.8 L 484.5 43.2 L 484.5 45.6 L 484.3 45.6 L 484.3 36 L 484.5 36 L 484.5 38.4 L 486.7 38.4 L 484.5 38.4 L 484.5 40.8 L 486.7 40.8 L 486.7 38.4 L 486.7 36 L 484.5 36 L 484.5 35.8 L 489.5 30.8 L 514.5 30.8 L 517.3 33.6 L 517.9 33.6 L 517.9 34.2 Z M 493.9 20.4 L 490.3 20.4 L 490.3 16.8 L 489.1 16.8 L 489.1 2.4 L 491.1 2.4 L 491.5 2.8 L 491.5 14.4 L 493.9 14.4 L 493.9 15.6 L 495.1 15.6 L 495.1 16.8 L 496.3 16.8 L 496.3 19.2 L 495.1 19.2 L 517.9 19.2 L 517.9 21.6 L 493.9 21.6 L 493.9 20.4 Z M 462.7 39.6 L 466.3 39.6 L 466.3 43.2 L 467.5 43.2 L 467.5 46.8 L 465.1 46.8 L 465.1 45.6 L 462.7 45.6 L 462.7 44.4 L 461.5 44.4 L 461.5 43.2 L 460.3 43.2 L 460.3 10 L 460.7 9.6 L 462.7 9.6 L 462.7 39.6 Z M 519.5 38.4 L 519.5 40.8 L 489.1 40.8 L 489.1 31.2 L 491.5 31.2 L 491.5 38.4 L 519.5 38.4 Z M 451.1 19.2 L 450.7 19.6 L 450.7 52 L 451.5 52.8 L 451.9 52.8 L 451.9 53.2 L 452.7 54 L 453.1 54 L 453.1 54.4 L 453.9 55.2 L 453.1 55.2 L 453.1 54.4 L 452.7 54 L 451.9 54 L 451.9 53.2 L 451.5 52.8 L 450.7 52.8 L 450.7 52 L 449.5 50.8 L 449.5 20.8 L 450.7 19.6 L 450.7 19.2 L 451.1 19.2 Z M 519.5 45.6 L 519.5 48 L 492.3 48 L 494.5 45.8 L 484.5 45.8 L 484.5 45.6 L 519.5 45.6 Z M 474.7 31.2 L 474.7 33.6 L 474.5 33.6 L 474.5 31.2 L 472.3 31.2 L 472.3 4.8 L 470.5 4.8 L 474.5 0.8 L 474.7 0.8 L 474.7 28.8 L 476.5 28.8 L 474.5 30.8 L 474.5 31.2 L 474.7 31.2 Z M 519.5 50.4 L 519.5 50.8 L 515.5 54.8 L 515.5 52.8 L 487.5 52.8 L 491.5 48.8 L 491.5 50.4 L 519.5 50.4 Z M 474.7 0.8 L 477.1 0.8 L 477.1 28.2 L 477.1 28.8 L 476.5 28.8 L 477.1 28.2 L 477.1 0.8 L 477.1 0 L 474.7 0 L 474.7 0.8 Z M 493.9 36 L 493.9 31.2 L 496.3 31.2 L 496.3 33.6 L 517.3 33.6 L 517.9 34.2 L 517.9 36 L 493.9 36 Z M 477.1 0.8 L 479.5 0.8 L 479.5 24 L 481.3 24 L 477.1 28.2 M 495.1 19.2 L 495.1 20.4 L 493.9 20.4 L 493.9 19.2 L 491.5 19.2 L 491.5 16.8 L 490.3 16.8 L 490.3 15.6 L 493.9 15.6 L 493.9 16.8 L 495.1 16.8 L 495.1 19.2 Z M 456.7 52.8 L 456.7 54 L 453.1 54 L 453.1 52.8 L 451.9 52.8 L 451.9 50.4 L 455.5 50.4 L 455.5 52.8 L 456.7 52.8 Z M 461.5 64.8 L 465.1 64.8 L 465.1 67.2 L 466.3 67.2 L 466.3 68.4 L 462.7 68.4 L 462.7 67.2 L 461.5 67.2 L 461.5 64.8 Z M 456.7 60 L 460.3 60 L 460.3 62.4 L 461.5 62.4 L 461.5 63.6 L 457.9 63.6 L 457.9 62.4 L 456.7 62.4 L 456.7 60 Z M 461.5 43.2 L 461.5 40.8 L 465.1 40.8 L 465.1 43.2 L 466.3 43.2 L 466.3 44.4 L 462.7 44.4 L 462.7 43.2 L 461.5 43.2 Z M 475.9 57.6 L 474.7 57.6 L 474.7 55.2 L 473.5 55.2 L 473.5 54 L 475.9 54 L 475.9 57.6 Z M 514.5 60 L 514.5 57.6 L 515.5 57.6 L 515.5 60 L 514.5 60 Z M 493.9 5.2 L 493.9 4.8 L 496.3 4.8 L 496.3 5.8 L 494.5 5.8 L 493.9 5.2 Z M 519.5 43.2 L 520.3 43.2 L 520.3 45.6 L 519.5 45.6 L 519.5 43.2 Z M 519.5 48 L 520.3 48 L 520.3 50.4 L 519.5 50.4 L 519.5 48 Z M 461.5 40.8 L 461.5 39.6 L 462.7 39.6 L 462.7 40.8 L 461.5 40.8 Z M 472.3 58.8 L 471.1 58.8 L 471.1 57.6 L 472.3 57.6 L 472.3 58.8 Z M 451.9 50.4 L 451.9 49.2 L 453.1 49.2 L 453.1 50.4 L 451.9 50.4 Z M 471.1 57.6 L 469.9 57.6 L 469.9 56.4 L 471.1 56.4 L 471.1 57.6 Z M 492.3 48 L 491.5 48.8 L 491.5 48 L 492.3 48 Z M 487.5 52.8 L 486.7 53.6 L 486.7 52.8 L 487.5 52.8 Z M 470.5 4.8 L 469.9 5.4 L 469.9 4.8 L 470.5 4.8 Z" id="7" vector-effect="non-scaling-stroke"/><path d="M 571.4 25.8 L 571.4 31.2 L 590.6 31.2 L 590.6 50.4 L 596.8 50.4 L 596.8 48 L 597.8 48 L 597.8 50.4 L 596.8 50.4 L 596.8 52.8 L 597.8 52.8 L 597.8 55.2 L 596.8 55.2 L 596.8 57.6 L 597.8 57.6 L 597.8 60 L 596.8 60 L 596.8 62.4 L 597.8 62.4 L 597.8 64.8 L 596.8 64.8 L 596.8 67.2 L 571.8 67.2 L 573.8 67.2 L 573.8 64.8 L 573.8 62.4 L 573.8 60 L 573.8 57.6 L 573.8 55.2 L 571.8 55.2 L 571.8 57.6 L 573.8 57.6 L 573.8 60 L 571.8 60 L 571.8 62.4 L 573.8 62.4 L 573.8 64.8 L 571.8 64.8 L 571.8 67.2 L 571.8 69.6 L 571.4 69.6 L 571.4 50.8 L 556.8 50.8 L 556.8 52.8 L 557 52.8 L 557 55.2 L 556.8 55.2 L 556.8 57.6 L 557 57.6 L 557 60 L 556.8 60 L 556.8 57.6 L 545 57.6 L 545 0.8 L 547.4 0.8 L 547.4 55.2 L 556.8 55.2 L 556.8 52.8 L 549.8 52.8 L 549.8 0.8 L 551.8 0.8 L 553.4 2.4 L 554.6 2.4 L 554.6 3.6 L 553.4 2.4 L 552.2 2.4 L 552.2 50.4 L 571.4 50.4 L 571.4 50.8 L 571.8 50.8 L 571.8 52.8 L 573.8 52.8 L 573.8 48 L 554.6 48 L 554.6 3.6 L 556.8 5.8 L 556.8 25.8 L 571.4 25.8 Z M 573.8 4.8 L 573.8 2.4 L 571.8 2.4 L 571.8 0.8 L 576.2 0.8 L 576.2 0 L 578.6 0 L 578.6 0.8 L 581 0.8 L 581 0 L 583.4 0 L 583.4 0.8 L 585.8 0.8 L 585.8 0 L 588.2 0 L 588.2 0.8 L 591.8 0.8 L 596.8 5.8 L 596.8 9.6 L 597.8 9.6 L 597.8 12 L 596.8 12 L 596.8 14.4 L 588.2 14.4 L 588.2 0.8 L 585.8 0.8 L 585.8 16.8 L 596.8 16.8 L 596.8 14.4 L 597.8 14.4 L 597.8 16.8 L 596.8 16.8 L 596.8 19.2 L 583.4 19.2 L 583.4 0.8 L 581 0.8 L 581 21.6 L 596.8 21.6 L 596.8 19.2 L 597.8 19.2 L 597.8 21.6 L 596.8 21.6 L 596.8 24 L 597.8 24 L 597.8 26.4 L 596.8 26.4 L 596.8 24 L 578.6 24 L 578.6 0.8 L 576.2 0.8 L 576.2 26.4 L 595.4 26.4 L 595.4 45.6 L 596.8 45.6 L 596.8 48 L 593 48 L 593 28.8 L 573.8 28.8 L 573.8 24 L 571.8 24 L 571.8 25.8 L 571.4 25.8 L 571.4 2.4 L 571.8 2.4 L 571.8 4.8 L 573.8 4.8 Z M 556.8 69.6 L 556.8 70.8 L 531.8 70.8 L 531.8 0.8 L 533 0.8 L 533 0 L 535.4 0 L 535.4 0.8 L 533 0.8 L 533 69.6 L 556.8 69.6 Z M 556.8 64.8 L 556.8 67.2 L 557 67.2 L 557 69.6 L 556.8 69.6 L 556.8 67.2 L 535.4 67.2 L 535.4 0.8 L 537.8 0.8 L 537.8 0 L 540.2 0 L 540.2 0.8 L 537.8 0.8 L 537.8 64.8 L 556.8 64.8 Z M 556.8 60 L 556.8 62.4 L 557 62.4 L 557 64.8 L 556.8 64.8 L 556.8 62.4 L 540.2 62.4 L 540.2 0.8 L 542.6 0.8 L 542.6 0 L 545 0 L 545 0.8 L 542.6 0.8 L 542.6 60 L 556.8 60 Z M 596.8 62.4 L 596.8 64.8 L 576.2 64.8 L 576.2 45.6 L 557 45.6 L 557 26.4 L 559.4 26.4 L 559.4 43.2 L 578.6 43.2 L 578.6 62.4 L 596.8 62.4 Z M 596.8 57.6 L 596.8 60 L 581 60 L 581 40.8 L 561.8 40.8 L 561.8 26.4 L 564.2 26.4 L 564.2 38.4 L 583.4 38.4 L 583.4 57.6 L 596.8 57.6 Z M 596.8 52.8 L 596.8 55.2 L 585.8 55.2 L 585.8 36 L 566.6 36 L 566.6 26.4 L 569 26.4 L 569 33.6 L 588.2 33.6 L 588.2 52.8 L 596.8 52.8 Z M 596.8 69.6 L 596.8 70.8 L 571.8 70.8 L 571.8 69.6 L 596.8 69.6 Z M 573.8 24 L 571.8 24 L 571.8 21.6 L 573.8 21.6 L 573.8 19.2 L 571.8 19.2 L 571.8 16.8 L 573.8 16.8 L 573.8 14.4 L 571.8 14.4 L 571.8 12 L 573.8 12 L 573.8 9.6 L 571.8 9.6 L 571.8 12 L 573.8 12 L 573.8 14.4 L 573.8 16.8 L 573.8 19.2 L 573.8 21.6 L 573.8 24 Z M 597.8 45.6 L 597.8 43.2 L 597.8 40.8 L 597.8 38.4 L 597.8 36 L 597.8 33.6 L 597.8 31.2 L 596.8 31.2 L 596.8 28.8 L 597.8 28.8 L 597.8 31.2 L 597.8 33.6 L 597.8 36 L 597.8 38.4 L 597.8 40.8 L 597.8 43.2 L 597.8 45.6 L 596.8 45.6 L 596.8 43.2 L 597.8 43.2 M 596.8 9.6 L 596.8 12 L 590.6 12 L 590.6 2.4 L 593 2.4 L 593 9.6 L 596.8 9.6 Z M 571.8 7.2 L 571.8 4.8 L 573.8 4.8 L 573.8 7.2 L 571.8 7.2 Z M 573.8 7.2 L 573.8 9.6 L 571.8 9.6 L 571.8 7.2 L 573.8 7.2 Z M 571.8 52.8 L 573.8 52.8 L 573.8 55.2 L 571.8 55.2 L 571.8 52.8 Z M 597.8 26.4 L 597.8 28.8 L 596.8 28.8 L 596.8 26.4 L 597.8 26.4 Z M 596.8 67.2 L 597.8 67.2 L 597.8 69.6 L 596.8 69.6 L 596.8 67.2 Z M 573.8 14.4 L 571.8 14.4 L 571.8 16.8 L 573.8 16.8 M 573.8 57.6 L 571.8 57.6 L 571.8 60 L 573.8 60 M 573.8 62.4 L 571.8 62.4 L 571.8 64.8 L 573.8 64.8 M 573.8 19.2 L 571.8 19.2 L 571.8 21.6 L 573.8 21.6 M 547.4 0.8 L 547.4 0 L 549.8 0 L 549.8 0.8 L 547.4 0.8 Z M 596.8 45.6 L 596.8 43.2 L 596.8 40.8 L 597.8 40.8 M 597.8 38.4 L 596.8 38.4 L 596.8 36 L 597.8 36 M 597.8 33.6 L 596.8 33.6 L 596.8 31.2 L 597.8 31.2 M 597.8 36 L 596.8 36 L 596.8 33.6 L 597.8 33.6 M 597.8 40.8 L 596.8 40.8 L 596.8 38.4 L 597.8 38.4" id="8" vector-effect="non-scaling-stroke"/><path d="M 660.2 14.8 L 662.6 14.8 L 662.6 11.6 L 660.2 11.6 L 660.2 8.4 L 662.6 8.4 L 662.6 10.8 L 665 10.8 L 665 6 L 662.6 6 L 660.2 6 L 660.2 8.4 L 662.6 8.4 L 662.6 6 L 662.6 3.2 L 661.4 2 L 659.4 2 L 659.4 18 L 665.2 18 L 665.2 14.8 L 665.8 14.8 L 665.8 18 L 665.2 18 L 665.2 20.8 L 662.6 23.4 L 662.6 24.4 L 661.6 24.4 L 660.2 25.8 L 645.8 25.8 L 645.8 25.2 L 645.8 20.4 L 645.8 15.6 L 645.8 10.8 L 643.4 10.8 L 643.4 11.6 L 641 11.6 L 641 10.8 L 640.2 10.8 L 640.2 50 L 643.4 50 L 643.4 49.2 L 645.2 49.2 L 645.2 54 L 645.8 54 L 645.8 58.8 L 645.2 58.8 L 645.2 63.6 L 645.8 63.6 L 645.8 68.4 L 645.2 68.4 L 645.2 70.8 L 620.2 70.8 L 620.2 25.8 L 600.2 25.8 L 600.2 0.8 L 660.2 0.8 L 661.4 2 L 662.6 2 L 662.6 3.2 L 665.2 5.8 L 665.2 14.8 L 665 14.8 L 665 10.8 L 662.6 10.8 L 662.6 11.6 L 660.2 11.6 L 660.2 14.8 Z M 626.6 25.2 L 624.2 25.2 L 624.2 21.2 L 602.6 21.2 L 602.6 24.4 L 621 24.4 L 621 25.2 L 602.6 25.2 L 602.6 24.4 L 601.8 24.4 L 601.8 2 L 602.6 2 L 602.6 1.2 L 607.4 1.2 L 607.4 6 L 607.4 10.8 L 607.4 15.6 L 607.4 20.4 L 605 20.4 L 626.6 20.4 L 626.6 25.2 Z M 645.2 63.6 L 645.2 68.4 L 643.4 68.4 L 643.4 69.2 L 621 69.2 L 621 25.2 L 621.8 25.2 L 621.8 27.6 L 621.8 30.8 L 624.2 30.8 L 624.2 30 L 626.6 30 L 626.6 34.8 L 626.6 39.6 L 626.6 44.4 L 626.6 49.2 L 626.6 54 L 626.6 58.8 L 626.6 63.6 L 624.2 63.6 L 645.2 63.6 Z M 629 61.2 L 629 58.8 L 628.2 58.8 L 628.2 18.8 L 629 18.8 L 629 58.8 L 630.6 58.8 L 630.6 59.6 L 641.8 59.6 L 641.8 61.2 L 629 61.2 Z M 621 2.8 L 621 8.4 L 622.6 8.4 L 622.6 10 L 640.2 10 L 640.2 10.8 L 636.2 10.8 L 636.2 15.6 L 636.2 18.8 L 635.4 18.8 L 635.4 16.4 L 633.8 16.4 L 633.8 15.6 L 636.2 15.6 L 633.8 15.6 L 633.8 14.8 L 616.2 14.8 L 616.2 10.8 L 620.2 10.8 L 620.2 2.8 L 621 2.8 Z M 611.4 3.6 L 611.4 16.4 L 616.2 16.4 L 616.2 15.6 L 631.4 15.6 L 631.4 16.4 L 629 16.4 L 629 18 L 611.4 18 L 611.4 16.4 L 609.8 16.4 L 609.8 3.6 L 611.4 3.6 Z M 649.8 3.6 L 649.8 22.8 L 650.6 22.8 L 650.6 24.4 L 660.2 24.4 L 660.2 25.2 L 650.6 25.2 L 650.6 24.4 L 649.8 24.4 L 649.8 22.8 L 648.2 22.8 L 648.2 3.6 L 649.8 3.6 Z M 644.2 6 L 644.2 2.8 L 624.2 2.8 L 624.2 2 L 621.8 2 L 621.8 1.2 L 645.8 1.2 L 645.8 6 L 644.2 6 Z M 641 30.8 L 643.4 30.8 L 643.4 34 L 641 34 L 641 30.8 L 641 27.6 L 641 24.4 L 643.4 24.4 L 643.4 25.2 L 645.8 25.2 L 643.4 25.2 L 643.4 27.6 L 641 27.6 L 641 30.8 L 643.4 30.8 L 643.4 30 L 645.2 30 L 645.2 34.8 L 645.8 34.8 L 645.8 30 L 643.4 30 L 643.4 27.6 L 641 27.6 M 621.8 66 L 643.4 66 L 643.4 68.4 L 621.8 68.4 L 621.8 66 Z M 645.8 34.8 L 643.4 34.8 L 643.4 34 L 641 34 L 641 37.2 L 643.4 37.2 L 643.4 34.8 L 645.8 34.8 L 645.8 39.6 L 645.2 39.6 L 643.4 39.6 L 643.4 40.4 L 643.4 43.6 L 643.4 44.4 L 643.4 46.8 L 641 46.8 L 641 43.6 L 643.4 43.6 L 641 43.6 L 641 46.8 M 643.4 43.6 L 643.4 40.4 L 641 40.4 L 641 37.2 L 643.4 37.2 L 643.4 39.6 L 645.8 39.6 L 645.8 44.4 L 645.8 49.2 L 645.2 49.2 L 645.2 44.4 L 645.8 44.4 L 643.4 44.4 L 645.2 44.4 L 645.2 49.2 M 643.4 24.4 L 643.4 21.2 L 641 21.2 L 641 18 L 643.4 18 L 643.4 20.4 L 645.8 20.4 L 643.4 20.4 L 643.4 21.2 L 643.4 24.4 L 641 24.4 L 641 21.2 L 643.4 21.2 M 605 14.8 L 605 11.6 L 602.6 11.6 L 602.6 8.4 L 605 8.4 L 605 10.8 L 607.4 10.8 L 605 10.8 L 605 11.6 L 605 14.8 L 602.6 14.8 L 602.6 11.6 L 605 11.6 M 624.2 62.8 L 624.2 59.6 L 621.8 59.6 L 621.8 56.4 L 624.2 56.4 L 624.2 58.8 L 626.6 58.8 L 624.2 58.8 L 624.2 59.6 L 624.2 62.8 L 621.8 62.8 L 621.8 59.6 L 624.2 59.6 M 624.2 53.2 L 624.2 50 L 621.8 50 L 621.8 46.8 L 624.2 46.8 L 624.2 49.2 L 626.6 49.2 L 624.2 49.2 L 624.2 50 L 624.2 53.2 L 621.8 53.2 L 621.8 50 L 624.2 50 M 624.2 43.6 L 624.2 40.4 L 621.8 40.4 L 621.8 37.2 L 624.2 37.2 L 624.2 39.6 L 626.6 39.6 L 624.2 39.6 L 624.2 40.4 L 624.2 43.6 L 621.8 43.6 L 621.8 40.4 L 624.2 40.4 M 643.4 58.8 L 643.4 56.4 L 641.8 56.4 L 641.8 54.8 L 636.2 54.8 L 636.2 54 L 645.2 54 L 645.2 58.8 L 643.4 58.8 Z M 654.6 20.4 L 660.2 20.4 L 660.2 21.2 L 662.6 21.2 L 662.6 23.4 L 661.6 24.4 L 660.2 24.4 L 660.2 21.2 L 654.6 21.2 L 654.6 20.4 Z M 654.6 6 L 654.6 3.6 L 653 3.6 L 653 2 L 650.6 2 L 650.6 1.2 L 655.4 1.2 L 655.4 6 L 654.6 6 Z M 616.2 6 L 616.2 3.6 L 614.6 3.6 L 614.6 2 L 612.2 2 L 612.2 1.2 L 617 1.2 L 617 6 L 616.2 6 Z M 626.6 30 L 624.2 30 L 624.2 27.6 L 621.8 27.6 L 624.2 27.6 L 624.2 25.2 L 626.6 25.2 L 626.6 30 Z M 621.8 46.8 L 621.8 43.6 L 624.2 43.6 L 624.2 44.4 L 626.6 44.4 L 624.2 44.4 L 624.2 46.8 L 621.8 46.8 Z M 621.8 37.2 L 621.8 34 L 624.2 34 L 624.2 34.8 L 626.6 34.8 L 624.2 34.8 L 624.2 37.2 L 621.8 37.2 Z M 621.8 56.4 L 621.8 53.2 L 624.2 53.2 L 624.2 54 L 626.6 54 L 624.2 54 L 624.2 56.4 L 621.8 56.4 Z M 602.6 8.4 L 602.6 5.2 L 605 5.2 L 605 6 L 607.4 6 L 605 6 L 605 8.4 L 602.6 8.4 Z M 641 18 L 641 14.8 L 643.4 14.8 L 643.4 15.6 L 645.8 15.6 L 643.4 15.6 L 643.4 18 L 641 18 Z M 602.6 18 L 602.6 14.8 L 605 14.8 L 605 15.6 L 607.4 15.6 L 605 15.6 L 605 18 L 602.6 18 Z M 645.8 6 L 645.8 10.8 L 644.2 10.8 L 644.2 6 L 645.8 6 Z M 645.2 44.4 L 645.2 39.6 L 645.2 34.8 L 643.4 34.8 M 641 14.8 L 641 11.6 L 643.4 11.6 L 643.4 14.8 L 641 14.8 Z M 602.6 21.2 L 602.6 18 L 605 18 L 605 20.4 L 605 21.2 L 602.6 21.2 Z M 655.4 6 L 655.4 10.8 L 654.6 10.8 L 654.6 6 L 655.4 6 Z M 654.6 10.8 L 655.4 10.8 L 655.4 15.6 L 654.6 15.6 L 654.6 10.8 Z M 654.6 15.6 L 655.4 15.6 L 655.4 20.4 L 654.6 20.4 L 654.6 15.6 Z M 624.2 63.6 L 624.2 66 L 621.8 66 L 621.8 62.8 L 624.2 62.8 L 624.2 63.6 Z M 617 6 L 617 10.8 L 616.2 10.8 L 616.2 6 L 617 6 Z M 621.8 34 L 621.8 30.8 L 624.2 30.8 L 624.2 34 L 621.8 34 Z M 665 14.8 L 665 15.6 L 660.2 15.6 L 660.2 14.8 L 665 14.8 Z M 602.6 5.2 L 602.6 2 L 605 2 L 605 5.2 L 602.6 5.2 Z M 643.4 49.2 L 641 49.2 L 641 46.8 L 643.4 46.8 L 643.4 49.2 Z M 645.8 25.8 L 645.8 30 L 645.2 30 L 645.2 25.8 L 645.8 25.8 Z M 641 43.6 L 641 40.4 L 643.4 40.4 M 629 18.8 L 629 18 L 630.6 18 L 630.6 18.8 L 629 18.8 Z M 641.8 59.6 L 641.8 58.8 L 643.4 58.8 L 643.4 59.6 L 641.8 59.6 Z M 612.2 2 L 612.2 3.6 L 611.4 3.6 L 611.4 2 L 612.2 2 Z M 650.6 2 L 650.6 3.6 L 649.8 3.6 L 649.8 2 L 650.6 2 Z M 621.8 2 L 621.8 2.8 L 621 2.8 L 621 2 L 621.8 2 Z" id="9" vector-effect="non-scaling-stroke"/></g></svg>